<?xml version="1.0" standalone="no"?>
<!DOCTYPE svg PUBLIC "-//W3C//DTD SVG 1.1//EN" "http://www.w3.org/Graphics/SVG/1.1/DTD/svg11.dtd" >
<svg>
<metadata>
Created by FontForge 20090622 at Tue Feb 19 14:08:41 2019
 By deploy user
Copyright (c) 1988, 1990, 1993, 1996, 1997, 1998, 1999 Adobe Systems Incorporated.  All Rights Reserved.Times New Roman is a trademark of the Monotype Corporation, registered in the US Patent and Trademark Office and may be registered in certain other jurisdictions.
</metadata>
<defs>
<font id="TimesNewRomanPSMT" horiz-adv-x="500" >
  <font-face 
    font-family="Times New Roman PS"
    font-weight="500"
    font-stretch="normal"
    units-per-em="1000"
    panose-1="0 0 0 0 0 0 0 0 0 0"
    ascent="800"
    descent="-200"
    x-height="447"
    cap-height="662"
    bbox="-167 -250 1009 878"
    underline-thickness="50"
    underline-position="-75"
    unicode-range="U+0020-U+FB02"
  />
<missing-glyph horiz-adv-x="250" 
 />
    <glyph glyph-name=".notdef" horiz-adv-x="250" 
 />
    <glyph glyph-name=".null" horiz-adv-x="0" 
 />
    <glyph glyph-name="nonmarkingreturn" horiz-adv-x="333" 
 />
    <glyph glyph-name="space" unicode=" " horiz-adv-x="250" 
 />
    <glyph glyph-name="exclam" unicode="!" horiz-adv-x="333" 
d="M176 175h-20l-18 163.5l-20 184t-8 84.5q0 28 14.5 49t41.5 21t41.5 -21t14.5 -49q0 -11 -8 -84.5l-20 -184zM166 -14q-22 0 -38 16t-16 38t16 38t38 16t38 -16t16 -38t-16 -38t-38 -16z" />
    <glyph glyph-name="quotedbl" unicode="&#x22;" horiz-adv-x="408" 
d="M127 392h-24q-8 51 -18.5 108t-14.5 82t-4 41q0 23 13 38.5t36 15.5t36 -15.5t13 -38.5q0 -16 -4 -41t-14.5 -82t-18.5 -108zM306 392h-24q-8 51 -18.5 108t-14.5 82t-4 41q0 23 13 38.5t36 15.5t36 -15.5t13 -38.5q0 -16 -4 -41t-14.5 -82t-18.5 -108z" />
    <glyph glyph-name="numbersign" unicode="#" 
d="M54 -15l46 224h-82v40h90l34 164h-124v40h132l46 224h41l-46 -224h168l46 224h41l-46 -224h82v-40h-90l-34 -164h124v-40h-132l-46 -224h-41l46 224h-168l-46 -224h-41zM149 249h168l34 164h-168z" />
    <glyph glyph-name="dollar" unicode="$" 
d="M256 641v-251q125 -88 158.5 -127t33.5 -100q0 -74 -58.5 -124.5t-133.5 -52.5v-62h-31v62q-88 3 -173 39v138h21q3 -63 45.5 -103t106.5 -42v285q-54 30 -90 59.5t-53 56.5t-23.5 48.5t-6.5 45.5q0 69 51 111.5t122 48.5v45h31v-45q58 -1 161 -43v-146h-19
q-5 67 -41 108.5t-101 48.5zM256 283v-265q48 5 81.5 39.5t33.5 82.5q0 10 -1.5 20t-6.5 19.5l-8.5 16t-13 16.5l-13.5 14.5t-17 15l-16.5 13.5t-19.5 14.5t-19 13.5zM225 410v231q-42 -4 -69 -30.5t-27 -68.5q0 -40 26 -71t70 -61z" />
    <glyph glyph-name="percent" unicode="%" horiz-adv-x="833" 
d="M175 676q66 0 103.5 -53.5t37.5 -125.5t-37.5 -125.5t-103.5 -53.5t-103.5 53.5t-37.5 125.5t37.5 125.5t103.5 53.5zM176 650q-64 0 -64 -154q0 -152 62 -152q64 0 64 154q0 152 -62 152zM658 344q66 0 103.5 -53.5t37.5 -125.5t-37.5 -125.5t-103.5 -53.5t-103.5 53.5
t-37.5 125.5t37.5 125.5t103.5 53.5zM659 318q-64 0 -64 -154q0 -152 62 -152q64 0 64 154q0 152 -62 152zM678 677l-473 -692h-44l473 692h44z" />
    <glyph glyph-name="ampersand" unicode="&#x26;" horiz-adv-x="778" 
d="M728 132l18 -13q-13 -61 -53.5 -97.5t-100.5 -36.5q-82 0 -169 95q-54 -48 -103 -71.5t-112 -23.5q-69 0 -121 39t-52 106q0 42 17.5 79.5t50 67t63.5 51t71 42.5q-39 87 -39 147q0 70 48.5 115t119.5 45q56 0 94.5 -32.5t38.5 -87.5q0 -32 -14 -60t-41 -49.5t-49.5 -35
t-56.5 -30.5q61 -118 130 -202q86 100 86 172q0 20 -13 38t-32 18v18h204v-18q-12 0 -22 -2l-17 -3.5t-15 -8t-11.5 -8.5t-11.5 -13t-9.5 -12.5t-10.5 -16.5t-10 -17q-68 -112 -115 -176q36 -42 70.5 -66.5t77.5 -24.5q33 0 57 19.5t32 52.5zM322 414q120 53 120 147
q0 33 -20.5 56.5t-52.5 23.5q-37 0 -62.5 -25.5t-25.5 -63.5q0 -58 41 -138zM398 108q-58 67 -144 229q-51 -26 -84.5 -68.5t-33.5 -93.5q0 -54 35 -92.5t87 -38.5q11 0 22 1.5t19 3.5t18.5 6.5t16 7.5t16.5 10t15 10l16.5 12.5z" />
    <glyph glyph-name="quotesingle" unicode="'" horiz-adv-x="180" 
d="M102 392h-24q-8 51 -18.5 108t-14.5 82t-4 41q0 23 13 38.5t36 15.5t36 -15.5t13 -38.5q0 -16 -4 -41t-14.5 -82t-18.5 -108z" />
    <glyph glyph-name="parenleft" unicode="(" horiz-adv-x="333" 
d="M311 694v-21q-176 -96 -176 -434t176 -434v-21q-130 69 -200 188t-70 267t70 267t200 188z" />
    <glyph glyph-name="parenright" unicode=")" horiz-adv-x="333" 
d="M22 -216v21q176 96 176 434t-176 434v21q130 -69 200 -188t70 -267t-70 -267t-200 -188z" />
    <glyph glyph-name="asterisk" unicode="*" 
d="M231 492q-14 10 -57 17.5t-73 21.5t-30 43q0 15 11 25t26 10q24 0 46.5 -20t45.5 -45.5t41 -33.5q0 26 -15.5 70t-15.5 61q0 22 10 37.5t30 15.5t30 -15.5t10 -37.5q0 -17 -15.5 -61t-15.5 -70q18 8 41 33.5t45.5 45.5t46.5 20q15 0 26 -10t11 -25q0 -29 -30 -43
t-73 -21.5t-57 -17.5q14 -10 57 -17.5t73 -21.5t30 -43q0 -15 -11 -25t-26 -10q-24 0 -46.5 20t-45.5 45.5t-41 33.5q0 -26 15.5 -70t15.5 -61q0 -22 -10 -37.5t-30 -15.5t-30 15.5t-10 37.5q0 17 15.5 61t15.5 70q-18 -8 -41 -33.5t-45.5 -45.5t-46.5 -20q-15 0 -26 10
t-11 25q0 29 30 43t73 21.5t57 17.5z" />
    <glyph glyph-name="plus" unicode="+" horiz-adv-x="564" 
d="M262 69v243h-242v40h242v243h40v-243h243v-40h-243v-243h-40z" />
    <glyph glyph-name="comma" unicode="," horiz-adv-x="250" 
d="M54 -166v21q42 12 73.5 47t31.5 78q0 20 -13 20q-4 0 -16 -7q-16 -7 -26 -7q-23 0 -36.5 15t-13.5 38q0 25 18.5 42t44.5 17q38 0 60 -32t22 -72q0 -58 -42 -100.5t-103 -59.5z" />
    <glyph glyph-name="hyphen" unicode="-" horiz-adv-x="333" 
d="M40 263h253v-77h-253v77z" />
    <glyph glyph-name="period" unicode="." horiz-adv-x="250" 
d="M125 -14q-23 0 -38.5 16t-15.5 38t15.5 38t38.5 16t38.5 -16t15.5 -38t-15.5 -38t-38.5 -16z" />
    <glyph glyph-name="slash" unicode="/" horiz-adv-x="278" 
d="M278 694l-239 -708h-39l240 708h38z" />
    <glyph glyph-name="zero" unicode="0" 
d="M250 676q81 0 147.5 -90t66.5 -255t-66.5 -255t-147.5 -90t-147.5 90t-66.5 255t66.5 255t147.5 90zM250 646q-118 0 -118 -347q0 -37 4.5 -77.5t15.5 -91t36.5 -82.5t61.5 -32q118 0 118 348q0 39 -3.5 78t-14.5 90t-36.5 82.5t-63.5 31.5z" />
    <glyph glyph-name="one" unicode="1" 
d="M117 597l161 79h17v-545q0 -30 0.5 -43.5t4.5 -30.5t13 -23t24.5 -11t40.5 -5v-18h-249v18q57 1 71 15.5t14 71.5v398q0 53 -8 73.5t-31 20.5q-19 0 -51 -15z" />
    <glyph glyph-name="two" unicode="2" 
d="M458 127l-46 -127h-391v18q190 187 251 273t61 166q0 60 -35.5 102.5t-91.5 42.5q-52 0 -92.5 -31.5t-54.5 -81.5h-18q13 84 60 135.5t129 51.5q75 0 131.5 -50t56.5 -124q0 -116 -145 -272l-147 -156h206q83 0 108 53h18z" />
    <glyph glyph-name="three" unicode="3" 
d="M152 328v15q64 10 107.5 50t43.5 103q0 50 -30.5 81.5t-81.5 31.5q-38 0 -71 -23t-54 -58l-15 8q23 63 68 101.5t109 38.5q43 0 75.5 -15t49 -37.5t24 -44t7.5 -39.5q0 -38 -27 -78t-64 -70q124 -48 124 -175q0 -43 -15.5 -83t-46 -73.5t-83 -54t-120.5 -20.5
q-16 0 -32 2t-35.5 7t-32 16.5t-12.5 27.5t12 26.5t29 10.5q23 0 63.5 -22.5t77.5 -22.5q53 0 87.5 40.5t34.5 94.5q0 9 -1 21t-11.5 39.5t-28.5 48t-57.5 37t-93.5 16.5z" />
    <glyph glyph-name="four" unicode="4" 
d="M465 244v-70h-89v-174h-81v174h-280v63l308 439h53v-432h89zM295 244v326h-2l-230 -326h232z" />
    <glyph glyph-name="five" unicode="5" 
d="M434 662l-36 -80h-199l-46 -92q109 -13 189.5 -81t80.5 -173q0 -103 -79.5 -176.5t-183.5 -73.5q-23 0 -46.5 5t-44.5 21t-21 40q0 15 11.5 25.5t27.5 10.5q21 0 57 -25t70 -25q60 0 103 43.5t43 103.5q0 95 -80 157t-210 62l127 258h237z" />
    <glyph glyph-name="six" unicode="6" 
d="M448 676v-18q-110 -4 -189.5 -89t-105.5 -200q65 49 140 49q76 0 122 -59t46 -138q0 -91 -59 -163t-148 -72q-68 0 -118 45t-71.5 105.5t-21.5 124.5q0 105 52 200.5t141 155t191 59.5h21zM374 172q0 44 -10.5 87.5t-41 80t-75.5 36.5q-39 0 -101 -42q-9 -61 -9 -101
q0 -30 7 -65t20.5 -70t39 -58.5t58.5 -23.5q57 0 84.5 47.5t27.5 108.5z" />
    <glyph glyph-name="seven" unicode="7" 
d="M100 662h355v-18l-220 -658h-55l198 596h-188q-51 0 -81.5 -18t-57.5 -64l-14 5z" />
    <glyph glyph-name="eight" unicode="8" 
d="M192 334q-34 28 -47 40t-35.5 37.5t-31.5 51.5t-9 57q0 70 53.5 113t124.5 43q83 0 132 -43.5t49 -100.5q0 -36 -24 -70t-49 -52.5t-64 -42.5q78 -62 104 -93q47 -55 47 -116q0 -77 -56.5 -124.5t-135.5 -47.5q-43 0 -77.5 13t-55 31.5t-34 42t-18.5 42t-5 33.5
q0 55 36.5 99.5t95.5 86.5zM268 385q26 23 37 34t26 31t21 41t6 48q0 51 -29 79t-80 28q-43 0 -76.5 -26t-33.5 -68q0 -27 14.5 -53.5t29 -40.5t45.5 -39.5t40 -33.5zM214 315q-37 -29 -58 -72t-21 -89q0 -60 32.5 -99t90.5 -39q47 0 80.5 27t33.5 72q0 42 -34.5 85
t-123.5 115z" />
    <glyph glyph-name="nine" unicode="9" 
d="M53 -14v18q110 0 187 84t107 202q-74 -49 -140 -49q-77 0 -122.5 59.5t-45.5 138.5q0 93 58 165t149 72q67 0 117 -44.5t72 -106t22 -126.5q0 -71 -28.5 -143.5t-77.5 -133t-123.5 -98.5t-158.5 -38h-16zM355 327q9 59 9 99q0 30 -7 65.5t-20.5 71.5t-39.5 59.5t-59 23.5
q-58 0 -85 -48t-27 -111q0 -31 6 -63t19 -64.5t38 -53.5t58 -21q26 0 57.5 12t50.5 30z" />
    <glyph glyph-name="colon" unicode=":" horiz-adv-x="278" 
d="M139 353q-23 0 -38.5 15.5t-15.5 38.5t15.5 38.5t38.5 15.5t38.5 -15.5t15.5 -38.5t-15.5 -38.5t-38.5 -15.5zM139 -14q-23 0 -38.5 16t-15.5 38t15.5 38t38.5 16t38.5 -16t15.5 -38t-15.5 -38t-38.5 -16z" />
    <glyph glyph-name="semicolon" unicode=";" horiz-adv-x="278" 
d="M68 -166v21q42 12 73.5 47t31.5 78q0 20 -13 20q-4 0 -16 -7q-16 -7 -26 -7q-23 0 -36.5 15t-13.5 38q0 25 18.5 42t44.5 17q38 0 60 -32t22 -72q0 -58 -42 -100.5t-103 -59.5zM139 353q-23 0 -38.5 15.5t-15.5 38.5t15.5 38.5t38.5 15.5t38.5 -15.5t15.5 -38.5
t-15.5 -38.5t-38.5 -15.5z" />
    <glyph glyph-name="less" unicode="&#x3c;" horiz-adv-x="564" 
d="M20 344l525 229v-43l-452 -198l452 -198v-43l-525 229v24z" />
    <glyph glyph-name="equal" unicode="=" horiz-adv-x="564" 
d="M20 431h525v-40h-525v40zM20 273h525v-40h-525v40z" />
    <glyph glyph-name="greater" unicode="&#x3e;" horiz-adv-x="564" 
d="M545 320l-525 -229v43l452 198l-452 198v43l525 -229v-24z" />
    <glyph glyph-name="question" unicode="?" horiz-adv-x="444" 
d="M219 156h-20q0 53 17.5 105.5t38.5 87t38.5 79t17.5 85.5q0 55 -29.5 96t-82.5 41q-33 0 -63 -16t-30 -47q0 -18 15 -44.5t15 -39.5q0 -17 -11 -29.5t-28 -12.5q-25 0 -39.5 24t-14.5 51q0 54 44.5 97.5t134.5 43.5q55 0 93.5 -18t55.5 -45.5t24 -50t7 -41.5
q0 -40 -19 -77.5t-46 -68l-53.5 -62t-45.5 -72.5t-19 -86zM210 -14q-22 0 -38 16t-16 38t16 38t38 16t38 -16t16 -38t-16 -38t-38 -16z" />
    <glyph glyph-name="at" unicode="@" horiz-adv-x="921" 
d="M689 467l-83 -288q-19 -73 -19 -91q0 -15 10.5 -26t27.5 -11q72 0 138.5 95.5t66.5 219.5q0 135 -89 219t-225 84q-123 0 -221 -67t-149 -172.5t-51 -227.5q0 -168 106 -278t274 -110q135 0 239 72t156 198h28q-41 -134 -159.5 -217t-261.5 -83q-185 0 -306.5 123
t-121.5 308q0 129 59 238.5t165.5 175t236.5 65.5q154 0 252 -91t98 -244q0 -80 -30 -157t-93.5 -132t-145.5 -55q-75 0 -75 67q0 29 8 67l-2 2q-112 -136 -188 -136q-42 0 -66 34t-24 77q0 77 43 158.5t106.5 133.5t120.5 52q31 0 54.5 -17.5t27.5 -46.5h2l15 51zM579 377
q0 30 -16 50.5t-45 20.5q-44 0 -91.5 -59.5t-76 -130.5t-28.5 -114q0 -28 15 -49t41 -21q62 0 131.5 97.5t69.5 205.5z" />
    <glyph glyph-name="A" unicode="A" horiz-adv-x="722" 
d="M459 222h-256l-40 -93q-22 -47 -22 -67q0 -25 20 -33t57 -11v-18h-208v18q38 4 59 25t44 76l238 558h18l225 -540q28 -67 46 -87q27 -30 72 -32v-18h-261v18q35 2 51.5 11t16.5 34q0 16 -24 76zM446 258l-113 267l-115 -267h228z" />
    <glyph glyph-name="B" unicode="B" horiz-adv-x="667" 
d="M113 127v408q0 38 -1.5 53.5t-10.5 31.5t-28 20t-54 4v18h306q131 0 194 -50.5t63 -127.5q0 -53 -33 -91.5t-84 -53.5v-2q61 -8 104.5 -50t43.5 -103q0 -21 -5 -42t-21.5 -48t-42.5 -46.5t-74.5 -33.5t-111.5 -14h-339v18q35 0 54 4t28 20t10.5 31.5t1.5 53.5zM207 618
v-254q35 -7 110 -7q50 0 85.5 14.5t50.5 37t21 41.5t6 38q0 71 -55.5 106t-131.5 35q-47 0 -86 -11zM207 319v-270q52 -13 113 -13q46 0 85 13t67.5 45t28.5 79q0 80 -61.5 115.5t-148.5 35.5q-57 0 -84 -5z" />
    <glyph glyph-name="C" unicode="C" horiz-adv-x="667" 
d="M602 677l15 -225h-15q-52 190 -222 190q-104 0 -167.5 -82t-63.5 -241q0 -79 22 -138.5t59 -91t78.5 -46.5t87.5 -15q75 0 123.5 33t97.5 104l15 -10q-47 -86 -112.5 -128t-161.5 -42q-141 0 -231 95.5t-90 237.5q0 150 95 254t244 104q69 0 141 -35q20 -10 29 -10
q15 0 25.5 14t13.5 32h17z" />
    <glyph glyph-name="D" unicode="D" horiz-adv-x="722" 
d="M113 127v408q0 38 -1.5 53.5t-10.5 31.5t-28 20t-54 4v18h256q58 0 97 -2.5t91.5 -15.5t88.5 -37q66 -44 99.5 -116.5t33.5 -156.5q0 -144 -93 -239t-265 -95h-308v18q35 0 54 4t28 20t10.5 31.5t1.5 53.5zM207 612v-563q55 -13 104 -13q123 0 192.5 84.5t69.5 210.5
q0 128 -70 211.5t-196 83.5q-50 0 -100 -14z" />
    <glyph glyph-name="E" unicode="E" horiz-adv-x="611" 
d="M207 626v-262h133q64 0 88 17t28 80h18v-231h-18q-6 63 -29 80.5t-87 17.5h-133v-242q0 -30 11 -40t43 -10h136q62 0 95.5 28t76.5 102h19l-56 -166h-513v18q35 0 54 4t28 20t10.5 31.5t1.5 53.5v408q0 38 -1.5 53.5t-10.5 31.5t-28 20t-54 4v18h508l9 -145h-20
q-14 73 -40 91t-100 18h-169z" />
    <glyph glyph-name="F" unicode="F" horiz-adv-x="556" 
d="M207 626v-261h108q56 0 77 18.5t22 73.5h18v-224h-18q-1 55 -22 73.5t-77 18.5h-108v-198q0 -38 1.5 -53.5t10.5 -31.5t28 -20t54 -4v-18h-282v18q35 0 54 4t28 20t10.5 31.5t1.5 53.5v408q0 38 -1.5 53.5t-10.5 31.5t-28 20t-54 4v18h492l6 -145h-17q-20 70 -52 89.5
t-107 19.5h-134z" />
    <glyph glyph-name="G" unicode="G" horiz-adv-x="722" 
d="M634 250v-207q-105 -58 -228 -58q-84 0 -150.5 24t-106.5 60t-66 82.5t-36 88t-10 80.5q0 60 22 121t63.5 114.5t110.5 87.5t154 34q60 0 123 -22q4 -1 18.5 -7t26 -9.5t17.5 -3.5q23 0 25 42h18l17 -209h-18q-53 175 -221 175q-118 0 -181 -89t-63 -212q0 -143 72 -233
t185 -90q78 0 134 36v179q0 38 -1.5 53.5t-10.5 31.5t-28 20t-54 4v18h263v-18q-46 0 -60.5 -19t-14.5 -74z" />
    <glyph glyph-name="H" unicode="H" horiz-adv-x="722" 
d="M207 355h308v180q0 38 -1.5 53.5t-10.5 31.5t-28 20t-54 4v18h282v-18q-35 0 -54 -4t-28 -20t-10.5 -31.5t-1.5 -53.5v-408q0 -38 1.5 -53.5t10.5 -31.5t28 -20t54 -4v-18h-282v18q35 0 54 4t28 20t10.5 31.5t1.5 53.5v192h-308v-192q0 -38 1.5 -53.5t10.5 -31.5t28 -20
t54 -4v-18h-282v18q35 0 54 4t28 20t10.5 31.5t1.5 53.5v408q0 38 -1.5 53.5t-10.5 31.5t-28 20t-54 4v18h282v-18q-35 0 -54 -4t-28 -20t-10.5 -31.5t-1.5 -53.5v-180z" />
    <glyph glyph-name="I" unicode="I" horiz-adv-x="333" 
d="M213 535v-408q0 -38 1.5 -53.5t10.5 -31.5t28 -20t54 -4v-18h-282v18q35 0 54 4t28 20t10.5 31.5t1.5 53.5v408q0 38 -1.5 53.5t-10.5 31.5t-28 20t-54 4v18h282v-18q-35 0 -54 -4t-28 -20t-10.5 -31.5t-1.5 -53.5z" />
    <glyph glyph-name="J" unicode="J" horiz-adv-x="389" 
d="M196 105v430q0 38 -1.5 53.5t-10.5 31.5t-28 20t-54 4v18h282v-18q-35 0 -54 -4t-28 -20t-10.5 -31.5t-1.5 -53.5v-326q0 -63 -16.5 -109.5t-43 -70t-53.5 -34t-54 -10.5q-38 0 -69.5 19t-31.5 55q0 23 13.5 37.5t36.5 14.5q19 0 32 -14.5t18.5 -31.5t15.5 -31.5
t25 -14.5q33 0 33 86z" />
    <glyph glyph-name="K" unicode="K" horiz-adv-x="722" 
d="M300 367l236 -234q35 -34 58.5 -54t62.5 -40t76 -21v-18h-315v18q18 -1 35.5 7t17.5 24q0 8 -2.5 15t-8.5 14.5t-10 12t-12.5 12.5l-10.5 10l-220 217v-203q0 -38 1.5 -53.5t10.5 -31.5t28 -20t54 -4v-18h-282v18q35 0 54 4t28 20t10.5 31.5t1.5 53.5v408q0 38 -1.5 53.5
t-10.5 31.5t-28 20t-54 4v18h282v-18q-35 0 -54 -4t-28 -20t-10.5 -31.5t-1.5 -53.5v-193l164 152q28 25 60 64t32 56q0 20 -14.5 25t-45.5 5v18h243v-18q-23 0 -47.5 -9t-49 -27.5t-40 -32.5t-37.5 -36z" />
    <glyph glyph-name="L" unicode="L" horiz-adv-x="611" 
d="M207 525v-395q0 -19 0.5 -28.5t2.5 -23t6.5 -19.5t13.5 -11t22 -5h148q62 0 101.5 31t70.5 109l16 -3l-57 -180h-512v18q35 0 54 4t28 20t10.5 31.5t1.5 53.5v408q0 38 -1.5 53.5t-10.5 31.5t-28 20t-54 4v18h299v-18q-28 0 -47 -2t-31.5 -9.5t-19 -13.5t-9.5 -23.5
t-3.5 -30t-0.5 -40.5z" />
    <glyph glyph-name="M" unicode="M" horiz-adv-x="889" 
d="M411 0l-254 554h-2v-427q0 -38 1.5 -53.5t10.5 -31.5t28 -20t54 -4v-18h-231v18q35 0 54 4t28 20t10.5 31.5t1.5 53.5v409q0 64 -17 86t-77 22v18h188l240 -518l237 518h187v-18q-35 0 -54 -4t-28 -20t-10.5 -31.5t-1.5 -53.5v-408q0 -38 1.5 -53.5t10.5 -31.5t28 -20
t54 -4v-18h-282v18q35 0 54 4t28 20t10.5 31.5t1.5 53.5v427h-2l-253 -554h-16z" />
    <glyph glyph-name="N" unicode="N" horiz-adv-x="722" 
d="M162 521v-394q0 -38 1.5 -53.5t10.5 -31.5t28 -20t54 -4v-18h-231v18q35 0 54 4t28 20t10.5 31.5t1.5 53.5v448q-30 37 -57 53t-74 16v18h180l403 -495h2v368q0 38 -1.5 53.5t-10.5 31.5t-28 20t-54 4v18h231v-18q-35 0 -54 -4t-28 -20t-10.5 -31.5t-1.5 -53.5v-546h-18
l-434 532h-2z" />
    <glyph glyph-name="O" unicode="O" horiz-adv-x="722" 
d="M361 -15q-144 0 -234 101.5t-90 244.5t90 244.5t234 101.5t234 -101.5t90 -244.5t-90 -244.5t-234 -101.5zM361 21q59 0 102 27t66 73t33.5 98t10.5 112t-10.5 112t-33.5 98t-66 73t-102 27t-102 -27t-66 -73t-33.5 -98t-10.5 -112t10.5 -112t33.5 -98t66 -73t102 -27z
" />
    <glyph glyph-name="P" unicode="P" horiz-adv-x="556" 
d="M207 310v-183q0 -38 1.5 -53.5t10.5 -31.5t28 -20t54 -4v-18h-282v18q35 0 54 4t28 20t10.5 31.5t1.5 53.5v408q0 38 -1.5 53.5t-10.5 31.5t-28 20t-54 4v18h270q112 0 173.5 -53.5t61.5 -131.5q0 -24 -8 -51t-28 -58.5t-64 -52t-106 -20.5q-42 0 -111 15zM207 613v-274
q47 -10 95 -10q47 0 78.5 43.5t31.5 99.5q0 64 -37 107t-100 43q-35 0 -68 -9z" />
    <glyph glyph-name="Q" unicode="Q" horiz-adv-x="722" 
d="M681 -180v-18q-112 5 -217.5 56t-189.5 135q-115 41 -176 128t-61 210q0 143 90 244.5t234 101.5t234 -101.5t90 -244.5q0 -119 -65.5 -212.5t-177.5 -125.5q90 -165 239 -173zM361 18q59 0 102 27.5t66 75t33.5 99.5t10.5 111q0 60 -10.5 112t-33.5 98t-66 73t-102 27
t-102 -27t-66 -73t-33.5 -98t-10.5 -112q0 -59 10.5 -111t33.5 -99.5t66 -75t102 -27.5z" />
    <glyph glyph-name="R" unicode="R" horiz-adv-x="667" 
d="M677 0h-177l-225 309h-68v-182q0 -38 1.5 -53.5t10.5 -31.5t28 -20t54 -4v-18h-282v18q35 0 54 4t28 20t10.5 31.5t1.5 53.5v408q0 38 -1.5 53.5t-10.5 31.5t-28 20t-54 4v18h287q56 0 98.5 -12.5t67 -31t39.5 -43t20 -45t5 -40.5q0 -68 -46.5 -110.5t-117.5 -57.5
l129 -180q31 -43 48.5 -63t51 -39t76.5 -22v-18zM207 617v-276h22q38 0 71 7.5t62 23t45.5 45t16.5 69.5q0 61 -37.5 100.5t-97.5 39.5q-21 0 -82 -9z" />
    <glyph glyph-name="S" unicode="S" horiz-adv-x="556" 
d="M460 677v-229h-18q-5 82 -55 136t-130 54q-45 0 -80 -29.5t-35 -73.5q0 -38 37.5 -71t90.5 -60l106 -56t90.5 -73.5t37.5 -98.5q0 -80 -58 -135.5t-151 -55.5q-56 0 -105 19q-54 18 -71 18q-26 0 -30 -37h-18v227h18q4 -46 20.5 -81t37.5 -54.5t48 -32t48.5 -16.5
t41.5 -4q54 0 93 28t39 80q0 42 -36.5 77t-88 62l-103 56.5t-88 73.5t-36.5 99q0 75 58 126t138 51q44 0 90 -19q53 -19 57 -19q16 0 23 10t11 28h18z" />
    <glyph glyph-name="T" unicode="T" horiz-adv-x="611" 
d="M352 619v-492q0 -38 1.5 -53.5t10.5 -31.5t28 -20t54 -4v-18h-282v18q35 0 54 4t28 20t10.5 31.5t1.5 53.5v492h-99q-104 0 -113 -112h-18l7 155h540l7 -155h-18q-9 112 -113 112h-99z" />
    <glyph glyph-name="U" unicode="U" horiz-adv-x="722" 
d="M103 237v298q0 38 -1.5 53.5t-10.5 31.5t-28 20t-54 4v18h282v-18q-35 0 -54 -4t-28 -20t-10.5 -31.5t-1.5 -53.5v-264q0 -100 16 -147t59 -71.5t96 -24.5q52 0 100 20.5t75 60.5q32 48 32 180v246q0 38 -1.5 53.5t-10.5 31.5t-28 20t-54 4v18h231v-18q-35 0 -54 -4
t-28 -20t-10.5 -31.5t-1.5 -53.5v-295q0 -39 -6.5 -73t-24 -68.5t-45 -58.5t-73.5 -39.5t-106 -15.5q-62 0 -108.5 14t-75 36.5t-46 56.5t-24 68.5t-6.5 76.5z" />
    <glyph glyph-name="V" unicode="V" horiz-adv-x="722" 
d="M398 135l152 373q27 64 27 86q0 43 -70 50v18h204v-18q-22 -2 -38.5 -11t-29 -26.5t-19.5 -31.5t-17 -38l-226 -552h-18l-243 559q-25 58 -39 73q-22 24 -71 27v18h271v-18q-2 0 -10.5 -1t-11.5 -1.5t-10.5 -2t-11 -3l-9.5 -4t-9 -5.5t-6 -7.5t-4.5 -10t-1.5 -12.5
q0 -21 28 -85z" />
    <glyph glyph-name="W" unicode="W" horiz-adv-x="944" 
d="M663 160l122 347q24 69 24 90q0 27 -18 37t-55 10v18h198v-18q-29 0 -48.5 -15.5t-28 -33.5t-18.5 -49q-2 -7 -3 -10l-190 -551h-19l-150 420h-2l-147 -420h-20l-204 571q-18 53 -34 70.5t-58 17.5v18h245v-18q-65 0 -65 -42q0 -12 15 -57l135 -385h2l110 309l-27 74
l-12.5 33t-13 26t-18.5 23.5t-24 12.5t-34 6v18h259v-18q-37 0 -54 -8t-17 -37q0 -27 26 -97l122 -342h2z" />
    <glyph glyph-name="X" unicode="X" horiz-adv-x="722" 
d="M349 291l-130 -168q-39 -48 -39 -67q0 -36 64 -38v-18h-235v18q50 5 89.5 36.5t81.5 83.5l148 188l-123 180q-21 31 -29 42t-28.5 35t-35.5 33.5t-39 18.5t-51 9v18h306v-18q-68 0 -68 -39q0 -16 30 -61l95 -142l110 139q38 47 38 65q0 38 -71 38v18h235v-18
q-33 0 -64.5 -19t-49 -38.5t-43.5 -53.5q-4 -5 -6 -8l-124 -158l175 -261q20 -29 37 -47.5t34.5 -26.5t27 -10t28.5 -4v-18h-284v18q65 0 65 38q0 7 -2.5 15t-7.5 17.5t-8.5 14.5l-11 16t-8.5 12z" />
    <glyph glyph-name="Y" unicode="Y" horiz-adv-x="722" 
d="M388 324l123 194q36 57 36 78q0 48 -67 48v18h231v-18q-44 0 -74.5 -25t-60.5 -73l-168 -265v-154q0 -38 1.5 -53.5t10.5 -31.5t28 -20t54 -4v-18h-282v18q35 0 54 4t28 20t10.5 31.5t1.5 53.5v145l-205 312q-18 28 -44 44t-52 16v18h283v-18q-77 0 -77 -44q0 -13 22 -49
z" />
    <glyph glyph-name="Z" unicode="Z" horiz-adv-x="611" 
d="M138 40h274q66 0 94 28.5t57 106.5h18l-31 -175h-539v18l424 604h-199q-80 0 -108 -23t-39 -103h-19l14 166h490z" />
    <glyph glyph-name="bracketleft" unicode="[" horiz-adv-x="333" 
d="M297 -198h-215v875h215v-43h-137v-789h137v-43z" />
    <glyph glyph-name="backslash" unicode="\" horiz-adv-x="278" 
d="M39 694l239 -708h-39l-239 708h39z" />
    <glyph glyph-name="bracketright" unicode="]" horiz-adv-x="333" 
d="M36 677h215v-875h-215v43h137v789h-137v43z" />
    <glyph glyph-name="asciicircum" unicode="^" horiz-adv-x="469" 
d="M244 676l207 -352h-46l-170 289l-171 -289h-46l208 352h18z" />
    <glyph glyph-name="underscore" unicode="_" 
d="M508 -125h-516v50h516v-50z" />
    <glyph glyph-name="grave" unicode="`" horiz-adv-x="333" 
d="M58 715h109l51 -169h-17z" />
    <glyph glyph-name="a" unicode="a" horiz-adv-x="444" 
d="M363 340v-215q0 -22 0.5 -32t2.5 -22.5t7.5 -17.5t14.5 -5q13 0 52 39v-28q-56 -73 -104 -73q-54 0 -54 73q-7 -5 -31 -24t-35 -26t-32 -15t-43 -8q-50 0 -78.5 33t-28.5 84q0 27 13.5 50.5t32 40t48.5 32.5t53 25l55 21.5t46 18.5q0 27 -1 44t-5.5 37t-13 31.5
t-24.5 19.5t-38 8q-27 0 -47 -15.5t-20 -43.5q0 -37 -9 -54t-32 -17q-20 0 -30.5 13.5t-10.5 34.5q0 13 7 29.5t23.5 36t52 33t82.5 13.5q42 0 71.5 -10.5t44 -23.5t22 -33t8.5 -30t1 -24zM282 91v171q-92 -37 -122 -60q-45 -34 -45 -78q0 -32 20 -57t51 -25q37 0 96 49z
" />
    <glyph glyph-name="b" unicode="b" 
d="M154 694v-324h2q59 91 140 91q65 0 117.5 -57t52.5 -161q0 -66 -24 -118.5t-60.5 -81t-74 -43t-70.5 -14.5q-84 0 -164 57v519q0 24 -3 39t-9.5 20.5t-11 7t-11.5 1.5q-14 0 -34 -8l-7 17l135 55h22zM154 339v-268q47 -49 105 -49q49 0 85.5 51.5t36.5 141.5
q0 73 -34.5 124.5t-92.5 51.5q-52 0 -100 -52z" />
    <glyph glyph-name="c" unicode="c" horiz-adv-x="444" 
d="M397 177l14 -7q-14 -75 -64 -129.5t-122 -54.5q-84 0 -137.5 67.5t-53.5 171.5q0 105 63.5 170.5t150.5 65.5q51 0 100.5 -30t49.5 -78q0 -19 -12.5 -30t-31.5 -11q-29 0 -41 14t-15 43q-4 58 -66 58q-59 0 -89.5 -48.5t-30.5 -112.5q0 -75 38 -139.5t108 -64.5
q96 0 139 115z" />
    <glyph glyph-name="d" unicode="d" 
d="M348 423v139q0 24 -3 39t-9.5 20.5t-11 7t-11.5 1.5q-14 0 -34 -8l-7 17l135 55h22v-576q0 -24 3 -39t9.5 -20.5t11 -7t11.5 -1.5q14 0 34 8l7 -17l-135 -55h-22v64q-62 -64 -133 -64q-83 0 -132 67.5t-49 153.5q0 95 61 174.5t154 79.5q62 0 99 -38zM348 85v218
q0 49 -28 88.5t-76 39.5q-16 0 -34 -8t-38.5 -27t-33.5 -59t-13 -95q0 -90 39.5 -146t97.5 -56q45 0 86 45z" />
    <glyph glyph-name="e" unicode="e" horiz-adv-x="444" 
d="M412 278h-310q0 -83 42.5 -147.5t118.5 -64.5q96 0 134 107l15 -10q-14 -74 -62.5 -125.5t-120.5 -51.5q-83 0 -139 64.5t-56 165.5q0 104 53 174.5t154 70.5q77 0 124 -51t47 -132zM103 308h207q0 50 -26 83.5t-76 33.5q-42 0 -72 -35.5t-33 -81.5z" />
    <glyph glyph-name="f" unicode="f" horiz-adv-x="333" 
d="M206 411v-280q0 -30 0.5 -43.5t4.5 -30.5t13 -23t24.5 -11t40.5 -5v-18h-249v18q25 0 41.5 5t25.5 11t13 23t4.5 30.5t0.5 43.5v280h-87v36h87v41q0 89 49.5 147.5t138.5 58.5q39 0 80 -23.5t41 -59.5q0 -15 -13 -27.5t-27 -12.5q-18 0 -32 13.5t-22.5 30t-26 30
t-40.5 13.5q-16 0 -28 -5.5t-19 -17t-11.5 -22.5t-6 -29t-2 -28t-0.5 -28v-81h115v-36h-115z" />
    <glyph glyph-name="g" unicode="g" 
d="M353 429h108q13 0 17 -4.5t4 -16.5q0 -13 -4 -17.5t-17 -4.5h-69q24 -33 24 -90q0 -62 -46.5 -107t-132.5 -45q-29 0 -64 10q-37 -30 -37 -57q0 -10 5.5 -15.5t25 -9.5t53.5 -5.5t93 -1.5q85 -1 123 -28.5t38 -84.5q0 -55 -69 -111.5t-180 -56.5q-28 0 -60 5.5t-64 16
t-52.5 30t-20.5 43.5q0 33 66 102l25 26q-49 21 -49 50q0 9 2.5 17.5t8.5 18l10 15.5t14.5 16l14 13.5t16 14t13.5 11.5q-40 18 -62.5 54.5t-22.5 80.5q0 60 46 111.5t135 51.5q65 0 108 -32zM232 437q-30 0 -56.5 -26t-26.5 -91q0 -58 23 -105t75 -47q84 0 84 118
q0 57 -24 104t-75 47zM143 0q-43 -55 -43 -86t46.5 -51t117.5 -20q86 0 130 29.5t44 67.5q0 17 -11.5 28t-34.5 15t-38.5 5t-40.5 1q-125 0 -170 11z" />
    <glyph glyph-name="h" unicode="h" 
d="M427 310v-225q0 -41 15.5 -53.5t53.5 -13.5v-18h-219v18q38 1 53.5 13.5t15.5 53.5v207q0 66 -20.5 87.5t-50.5 21.5q-51 0 -113 -64v-252q0 -41 15.5 -53.5t53.5 -13.5v-18h-219v18q38 1 53.5 13.5t15.5 53.5v477q0 24 -3 39t-9.5 20.5t-11 7t-11.5 1.5q-14 0 -34 -8
l-7 17l135 55h22v-327q46 50 79 72t73 22q57 0 85 -44t28 -107z" />
    <glyph glyph-name="i" unicode="i" horiz-adv-x="278" 
d="M184 461v-376q0 -41 15.5 -53.5t53.5 -13.5v-18h-219v18q38 1 53.5 13.5t15.5 53.5v244q0 24 -3 39t-9.5 20.5t-11 7t-11.5 1.5q-14 0 -34 -8l-7 17l135 55h22zM94 645q0 20 14.5 34.5t34.5 14.5t34.5 -14.5t14.5 -34.5t-14.5 -34.5t-34.5 -14.5t-34.5 14.5t-14.5 34.5z
" />
    <glyph glyph-name="j" unicode="j" horiz-adv-x="278" 
d="M184 461v-454q0 -116 -49.5 -169.5t-128.5 -53.5q-28 0 -56.5 12t-28.5 37q0 17 11.5 29.5t28.5 12.5q23 0 52.5 -26t45.5 -26q10 0 18.5 5.5t17 25.5t8.5 53v422q0 24 -3 39t-9.5 20.5t-11 7t-11.5 1.5q-14 0 -34 -8l-7 17l135 55h22zM94 645q0 20 14.5 34.5t34.5 14.5
t34.5 -14.5t14.5 -34.5t-14.5 -34.5t-34.5 -14.5t-34.5 14.5t-14.5 34.5z" />
    <glyph glyph-name="k" unicode="k" 
d="M306 67l-143 182l128 116q32 29 32 42q0 22 -36 22v18h196v-18q-47 0 -72.5 -12t-62.5 -46l-105 -97l136 -171q33 -42 54.5 -60t34 -21.5t38.5 -3.5v-18h-217v18q31 0 31 19q0 14 -14 30zM162 694v-609q0 -41 15.5 -53.5t53.5 -13.5v-18h-219v18q38 1 53.5 13.5
t15.5 53.5v477q0 24 -3 39t-9.5 20.5t-11 7t-11.5 1.5q-14 0 -34 -8l-7 17l135 55h22z" />
    <glyph glyph-name="l" unicode="l" horiz-adv-x="278" 
d="M184 694v-609q0 -41 15.5 -53.5t53.5 -13.5v-18h-219v18q38 1 53.5 13.5t15.5 53.5v477q0 24 -3 39t-9.5 20.5t-11 7t-11.5 1.5q-14 0 -34 -8l-7 17l135 55h22z" />
    <glyph glyph-name="m" unicode="m" horiz-adv-x="778" 
d="M162 461v-95l13 13.5l13.5 14l13 12.5t14.5 13l14 11t16 11l16 8t18 7t18 3.5t20 1.5q42 0 74.5 -27.5t37.5 -69.5q27 32 45 49.5t48 32.5t63 15q60 0 89 -44t29 -107v-225q0 -41 15.5 -53.5t53.5 -13.5v-18h-219v18q38 1 53.5 13.5t15.5 53.5v198q0 21 -0.5 34t-4.5 31
t-11.5 28t-22 17.5t-35.5 7.5q-52 0 -116 -60v-256q0 -41 15.5 -53.5t53.5 -13.5v-18h-219v18q38 1 53.5 13.5t15.5 53.5v198q0 21 -0.5 34t-4.5 31t-11.5 28t-22 17.5t-35.5 7.5q-52 0 -116 -60v-256q0 -41 15.5 -53.5t53.5 -13.5v-18h-219v18q38 1 53.5 13.5t15.5 53.5
v244q0 24 -3 39t-9.5 20.5t-11 7t-11.5 1.5q-14 0 -34 -8l-7 17l135 55h22z" />
    <glyph glyph-name="n" unicode="n" 
d="M162 461v-94q46 50 79 72t73 22q57 0 85 -44t28 -107v-225q0 -41 15.5 -53.5t53.5 -13.5v-18h-219v18q38 1 53.5 13.5t15.5 53.5v207q0 66 -20.5 87.5t-50.5 21.5q-51 0 -113 -64v-252q0 -41 15.5 -53.5t53.5 -13.5v-18h-219v18q38 1 53.5 13.5t15.5 53.5v244q0 24 -3 39
t-9.5 20.5t-11 7t-11.5 1.5q-14 0 -34 -8l-7 17l135 55h22z" />
    <glyph glyph-name="o" unicode="o" 
d="M251 461q92 0 153.5 -67t61.5 -160q0 -56 -21.5 -110.5t-74 -96t-126.5 -41.5q-92 0 -151 69.5t-59 163.5q0 96 61 169t156 73zM234 427q-44 0 -76.5 -39t-32.5 -126q0 -36 7 -74.5t22 -78t44.5 -64.5t68.5 -25q42 0 68 30t33 65t7 77q0 37 -7 74.5t-21.5 75t-44 61.5
t-68.5 24z" />
    <glyph glyph-name="p" unicode="p" 
d="M73 -128v457q0 24 -3 39t-9.5 20.5t-11 7t-11.5 1.5q-14 0 -34 -8l-7 17l135 55h22v-103h2q60 103 140 103q81 0 124.5 -67.5t43.5 -152.5q0 -102 -54 -178.5t-152 -76.5q-65 0 -104 40v-154q0 -42 15 -54t62 -13v-18h-235v18q47 1 62 13t15 54zM154 325v-186
q0 -34 5 -55.5t25 -39.5q28 -28 76 -28q43 0 71.5 31t38 69t9.5 81q0 30 -6.5 61.5t-19.5 62.5t-38 50.5t-58 19.5q-21 0 -41.5 -11.5t-31.5 -22t-30 -32.5z" />
    <glyph glyph-name="q" unicode="q" 
d="M429 461v-589q0 -42 15 -54t62 -13v-18h-235v18q47 1 62 13t15 54v205q-35 -42 -69 -66.5t-76 -24.5q-78 0 -123.5 66.5t-45.5 148.5q0 108 63.5 184t168.5 76q53 0 92 -33l54 33h17zM348 108v198q0 26 -1 37.5t-7.5 28.5t-21.5 30q-29 23 -70 23q-12 0 -25 -2.5
t-32.5 -14t-34.5 -30t-26 -55.5t-11 -87q0 -52 13 -89.5t34.5 -56t42 -26.5t41.5 -8q59 0 98 52z" />
    <glyph glyph-name="r" unicode="r" horiz-adv-x="333" 
d="M162 461v-96h2q11 19 20 31t24 29.5t32.5 26.5t36.5 9q24 0 43.5 -15.5t19.5 -39.5q0 -18 -12.5 -31.5t-30.5 -13.5q-17 0 -39 16.5t-32 16.5q-15 0 -34 -26t-30 -49v-188q0 -30 0.5 -43.5t4.5 -30.5t13 -23t24.5 -11t40.5 -5v-18h-233v18q38 1 53.5 13.5t15.5 53.5v244
q0 24 -3 39t-9.5 20.5t-11 7t-11.5 1.5q-14 0 -34 -8l-7 17l135 55h22z" />
    <glyph glyph-name="s" unicode="s" horiz-adv-x="389" 
d="M323 461v-153h-18q-13 58 -39.5 90.5t-80.5 32.5q-30 0 -53 -16t-23 -45q0 -30 25.5 -52.5t61.5 -38.5t72.5 -34.5t62 -50t25.5 -74.5q0 -59 -46.5 -96.5t-106.5 -37.5q-36 0 -90 15q-15 5 -25 5q-15 0 -18 -13h-18v160h18q7 -55 45 -96t92 -41q32 0 54.5 18t22.5 50
t-24 56t-58 40l-68.5 33t-58.5 46t-24 68q0 61 39 97.5t100 36.5q20 0 57 -11q32 -8 37 -8q14 0 21 19h18z" />
    <glyph glyph-name="t" unicode="t" horiz-adv-x="278" 
d="M159 447h105v-36h-105v-275q0 -21 1 -32t5 -25.5t14 -21.5t27 -7q16 0 31.5 12t20.5 28h20q-15 -40 -45.5 -68t-69.5 -28q-32 0 -58.5 25t-26.5 82v310h-70v20q85 35 136 163h15v-147z" />
    <glyph glyph-name="u" unicode="u" 
d="M424 447v-329q0 -24 3 -39t9.5 -20.5t11 -7t11.5 -1.5q14 0 34 8l7 -17l-135 -55h-22v95q-30 -33 -46 -48t-45.5 -31t-60.5 -16q-54 0 -84 41t-30 106v218q0 47 -12.5 62t-61.5 16v18h155v-311q0 -90 75 -90q48 0 110 64v241q0 47 -12.5 62t-61.5 16v18h155z" />
    <glyph glyph-name="v" unicode="v" 
d="M280 107l100 245q16 35 16 51q0 17 -12 21.5t-39 4.5v18h146v-18q-15 0 -26 -5t-19.5 -17t-13.5 -21.5t-12 -26.5l-154 -373h-20l-154 367q-9 21 -14 30.5t-14.5 21t-22.5 16.5t-32 8v18h210v-18q-27 0 -40 -7t-13 -29q0 -13 15 -50z" />
    <glyph glyph-name="w" unicode="w" horiz-adv-x="722" 
d="M516 115l90 236q14 36 14 51q0 27 -47 27v18h141v-18q-40 -3 -67 -68l-144 -375h-21l-111 286l-131 -286h-18l-139 364q-18 48 -31 60q-15 14 -44 19v18h187v-18q-42 0 -42 -31q0 -16 13 -46l92 -247l95 209l-20 54q-13 34 -27.5 47.5t-48.5 13.5v18h213v-18
q-59 0 -59 -37q0 -10 8 -32z" />
    <glyph glyph-name="x" unicode="x" 
d="M203 226l-77 113q-24 35 -35 49t-32 27.5t-46 13.5v18h211v-18q-37 0 -37 -25q0 -14 48 -83l17 -28l19 26q53 72 53 86q0 24 -35 24v18h151v-18q-28 0 -50 -19.5t-55 -63.5l-63 -84l105 -150q43 -61 61 -77.5t50 -16.5v-18h-211v18q43 0 43 23q0 16 -38 71l-59 86
l-64 -86q-40 -50 -40 -68q0 -13 14 -19.5t30 -6.5v-18h-146v18q11 1 22 7t24 19.5t19.5 21.5t20 26.5t14.5 19.5z" />
    <glyph glyph-name="y" unicode="y" 
d="M246 18l-156 326q-11 23 -20 38t-26.5 30t-37.5 17v18h208v-18q-27 0 -40.5 -7t-13.5 -29q0 -13 21 -61l104 -214l95 235q13 33 13 51q0 16 -10.5 20.5t-34.5 4.5v18h146v-18q-39 0 -60 -52l-191 -468q-26 -64 -69.5 -94.5t-77.5 -30.5q-27 0 -47 15t-20 41
q0 21 14.5 32.5t36.5 11.5q19 0 39.5 -9t26.5 -9q14 0 26 8t22 25t13.5 25l11.5 27z" />
    <glyph glyph-name="z" unicode="z" horiz-adv-x="444" 
d="M419 137l-6 -137h-395v18l297 395h-134q-30 0 -42.5 -1t-28.5 -5t-22 -13.5t-11.5 -26.5t-8.5 -44h-18v124h376v-18l-299 -395h151q72 0 94 16t29 87h18z" />
    <glyph glyph-name="braceleft" unicode="{" horiz-adv-x="480" 
d="M104 228v22q47 6 78.5 33t31.5 72q0 30 -9 75q-12 52 -12 77q0 72 55.5 129t127.5 58v-18q-48 -5 -81.5 -40t-33.5 -82q0 -37 10 -77q11 -55 11 -72q0 -60 -38.5 -104t-99.5 -61v-2q61 -17 99.5 -61t38.5 -104q0 -18 -11 -71q-10 -42 -10 -78q0 -47 33.5 -82t81.5 -40
v-18q-72 1 -127.5 58t-55.5 129q0 25 12 77q9 45 9 75q0 45 -31.5 72t-78.5 33z" />
    <glyph glyph-name="bar" unicode="|" horiz-adv-x="200" 
d="M120 750v-1000h-40v1000h40z" />
    <glyph glyph-name="braceright" unicode="}" horiz-adv-x="480" 
d="M376 250v-22q-47 -6 -78.5 -33t-31.5 -72q0 -30 9 -75q12 -52 12 -77q0 -72 -55.5 -129t-127.5 -58v18q48 5 81.5 40t33.5 82q0 37 -10 77q-11 55 -11 72q0 60 38.5 104t99.5 61v2q-61 17 -99.5 61t-38.5 104q0 18 11 71q10 42 10 78q0 47 -33.5 82t-81.5 40v18
q72 -1 127.5 -58t55.5 -129q0 -25 -12 -77q-9 -45 -9 -75q0 -45 31.5 -72t78.5 -33z" />
    <glyph glyph-name="asciitilde" unicode="~" horiz-adv-x="541" 
d="M496 411h23q-1 -63 -39 -110.5t-99 -47.5q-46 0 -128 46t-117 46q-39 0 -62.5 -26t-27.5 -66h-23q1 63 39 110.5t99 47.5q46 0 128 -46t117 -46q39 0 62.5 26t27.5 66z" />
    <glyph glyph-name="exclamdown" unicode="&#xa1;" horiz-adv-x="333" 
d="M157 286h20l18 -163.5l20 -184t8 -84.5q0 -28 -14.5 -49t-41.5 -21t-41.5 21t-14.5 49q0 11 8 84.5l20 184zM167 367q-23 0 -38.5 15.5t-15.5 38.5t15.5 38.5t38.5 15.5t38.5 -15.5t15.5 -38.5t-15.5 -38.5t-38.5 -15.5z" />
    <glyph glyph-name="cent" unicode="&#xa2;" 
d="M183 123l108 299q-10 5 -30 5q-59 0 -89.5 -48.5t-30.5 -112.5q0 -84 42 -143zM318 400l-111 -305q33 -33 80 -33q96 0 139 115l14 -7q-14 -75 -64 -129.5t-122 -54.5q-44 0 -79 20l-70 -191h-34l76 209q-84 65 -84 201q0 105 63.5 170.5t150.5 65.5q12 0 27 -3l68 189
h36l-72 -197q39 -12 65 -37.5t26 -59.5q0 -19 -12.5 -30t-31.5 -11q-31 0 -44.5 22t-15.5 44t-5 22z" />
    <glyph glyph-name="sterling" unicode="&#xa3;" 
d="M353 322h-124v-34q0 -87 -32 -174q14 -4 48 -16t59.5 -18t49.5 -6q84 0 106 78l17 -4q-8 -66 -44.5 -114t-99.5 -48q-22 0 -46 9.5t-35.5 16.5t-40.5 29l-33 25q-37 -80 -90 -80q-27 0 -43.5 18t-16.5 46q0 35 24 56.5t60 21.5q7 0 21 -2t18 -2q0 5 1 19t1 22
q0 57 -9 157h-96v46h92q-5 72 -5 88q0 92 47.5 156.5t136.5 64.5q55 0 88 -32.5t33 -67.5q0 -15 -11 -28t-26 -13q-36 0 -39 58q-3 53 -58 53q-90 0 -90 -139q0 -39 11 -140h126v-46zM146 84q-20 14 -42 14q-20 0 -33 -11t-13 -31q0 -16 8 -28t23 -12q22 0 36.5 21t20.5 47z
" />
    <glyph glyph-name="currency" unicode="&#xa4;" 
d="M74 331q0 -73 51.5 -124.5t124.5 -51.5t124.5 51.5t51.5 124.5t-51.5 124.5t-124.5 51.5t-124.5 -51.5t-51.5 -124.5zM113 166l-72 -72l-28 28l72 72q-51 57 -51 137q0 78 51 137l-72 72l28 28l72 -72q57 51 137 51q78 0 137 -51l72 72l28 -28l-72 -72q51 -59 51 -137
t-51 -137l72 -72l-28 -28l-72 72q-59 -51 -137 -51q-80 0 -137 51z" />
    <glyph glyph-name="yen" unicode="&#xa5;" 
d="M290 285v-180q0 -27 1.5 -38.5t9 -25t25.5 -18t50 -4.5v-19h-253v19q32 0 50 4.5t25.5 18t9 25t1.5 38.5v170l-28 63h-180v36h165l-43 99h-122v36h107l-22 53q-18 45 -34.5 63.5t-50.5 18.5v18h216v-18q-21 0 -40.5 -7.5t-19.5 -24.5q0 -2 14 -39l26 -64h150l23 57
q15 36 15 48q0 30 -55 30v18h169v-18q-10 0 -18.5 -2t-15 -4.5t-13 -9.5l-10.5 -11t-10 -15.5l-9 -17t-10.5 -22l-10.5 -23.5l-14 -30h111v-36h-124l-45 -99h169v-36h-186zM330 473h-118l59 -142z" />
    <glyph glyph-name="brokenbar" unicode="&#xa6;" horiz-adv-x="200" 
d="M120 175v-350h-40v350h40zM120 675v-350h-40v350h40z" />
    <glyph glyph-name="section" unicode="&#xa7;" 
d="M184 414q-61 63 -61 123t40.5 100t99.5 40q49 0 86 -30.5t37 -78.5q0 -16 -11 -29t-27 -13t-27.5 11t-11.5 27q0 7 3.5 22.5t3.5 24.5q0 21 -15.5 33.5t-37.5 12.5q-35 0 -62.5 -24.5t-27.5 -58.5q0 -35 26 -67.5t62.5 -60l73.5 -56.5t63 -69t26 -86q0 -49 -31 -94.5
t-77 -70.5q60 -64 60 -121q0 -61 -39.5 -102t-99.5 -41q-48 0 -85 32t-37 79q0 16 11 29t27 13q18 0 27 -12.5t9 -30.5q0 -10 -4 -27t-4 -25q0 -18 19.5 -28t40.5 -10q31 0 58 25t27 55q0 34 -26 67.5t-62.5 61.5l-73 58t-62.5 70t-26 84q0 52 30 95.5t78 71.5zM200 399
q-74 -42 -74 -110q0 -40 28 -75.5t80.5 -76t65.5 -53.5q31 17 52.5 45t21.5 60q0 43 -27.5 78.5t-80 76.5t-66.5 55z" />
    <glyph glyph-name="dieresis" unicode="&#xa8;" horiz-adv-x="333" 
d="M81 547q-23 0 -38.5 15.5t-15.5 38.5t15.5 38.5t38.5 15.5t38.5 -15.5t15.5 -38.5t-15.5 -38.5t-38.5 -15.5zM252 547q-22 0 -38 15.5t-16 38.5t16 38.5t38 15.5t38 -15.5t16 -38.5t-16 -38.5t-38 -15.5z" />
    <glyph glyph-name="copyright" unicode="&#xa9;" horiz-adv-x="760" 
d="M551 554l10 -137h-19q-14 53 -53 84t-93 31q-79 0 -119 -54t-40 -136q0 -88 39 -144.5t124 -56.5q45 0 86 21t65 58l19 -10q-66 -99 -190 -99q-91 0 -157.5 61.5t-66.5 152.5q0 101 71 165t174 64q33 0 89 -18q12 -4 18 -4q15 0 24 22h19zM726 331q0 -143 -101.5 -244.5
t-244.5 -101.5t-244.5 101.5t-101.5 244.5t101.5 244.5t244.5 101.5t244.5 -101.5t101.5 -244.5zM696 331q0 131 -92.5 223.5t-223.5 92.5t-223.5 -92.5t-92.5 -223.5t92.5 -223.5t223.5 -92.5t223.5 92.5t92.5 223.5z" />
    <glyph glyph-name="ordfeminine" unicode="&#xaa;" horiz-adv-x="276" 
d="M237 584v-135q0 -22 14 -22q6 0 27 15v-23q-49 -35 -73 -35q-30 0 -36 45q-59 -45 -104 -45q-25 0 -44.5 18t-19.5 44q0 71 168 130q1 25 -1.5 40t-14.5 28t-36 13q-43 0 -43 -39q0 -41 -30 -41q-13 0 -21.5 8.5t-8.5 20.5q0 38 35 54t81 16q64 0 85.5 -26t21.5 -66z
M169 452v101q-38 -11 -69 -33t-31 -52q0 -18 12.5 -30t30.5 -12q10 0 19 3.5t22 12z" />
    <glyph glyph-name="guillemotleft" unicode="&#xab;" 
d="M250 -4h-30l-189 230l189 230h30l-121 -230zM469 -4h-30l-189 230l189 230h30l-121 -230z" />
    <glyph glyph-name="logicalnot" unicode="&#xac;" horiz-adv-x="564" 
d="M20 431h525v-198h-40v158h-485v40z" />
    <glyph glyph-name="registered" unicode="&#xae;" horiz-adv-x="760" 
d="M247 220v233q0 31 -1.5 43.5t-12 22.5t-32.5 10v18h177q70 0 114.5 -26.5t44.5 -81.5q0 -83 -110 -110l95 -135q23 -33 34.5 -42.5t35.5 -9.5v-18h-94l-144 197h-37v-143q0 -17 10 -25.5t20 -9.5t28 -1v-18h-179v18q36 0 43.5 15t7.5 63zM317 343h9q130 0 130 88
q0 41 -27.5 67.5t-69.5 26.5q-22 0 -42 -7v-175zM726 331q0 -143 -101.5 -244.5t-244.5 -101.5t-244.5 101.5t-101.5 244.5t101.5 244.5t244.5 101.5t244.5 -101.5t101.5 -244.5zM696 331q0 131 -92.5 223.5t-223.5 92.5t-223.5 -92.5t-92.5 -223.5t92.5 -223.5t223.5 -92.5
t223.5 92.5t92.5 223.5z" />
    <glyph glyph-name="macron" unicode="&#xaf;" horiz-adv-x="333" 
d="M11 632h311v-63h-311v63z" />
    <glyph glyph-name="degree" unicode="&#xb0;" horiz-adv-x="400" 
d="M351 528q0 -62 -43.5 -106.5t-105.5 -44.5q-65 0 -109.5 44t-44.5 108q0 61 45 104t106 43t106.5 -43t45.5 -105zM308 528q0 45 -32.5 76.5t-77.5 31.5q-44 0 -75.5 -31.5t-31.5 -75.5q0 -47 32 -79.5t78 -32.5q45 0 76 33t31 78z" />
    <glyph glyph-name="plusminus" unicode="&#xb1;" horiz-adv-x="564" 
d="M20 69v40h242v203h-242v40h242v243h40v-243h243v-40h-243v-203h243v-40h-525z" />
    <glyph glyph-name="twosuperior" unicode="&#xb2;" horiz-adv-x="300" 
d="M279 398l-29 -74h-241v18q99 78 135 119q49 56 49 100q0 29 -20.5 49t-50.5 20q-63 0 -81 -56h-22q7 49 38.5 75.5t80.5 26.5q43 0 79.5 -25.5t36.5 -66.5q0 -14 -5.5 -30t-12.5 -29.5t-21 -30.5l-23 -27.5t-28 -28.5t-27 -24.5l-28 -23.5t-23 -20h103q53 0 69 28h21z
" />
    <glyph glyph-name="threesuperior" unicode="&#xb3;" horiz-adv-x="300" 
d="M44 592l-18 8q32 76 112 76q37 0 67.5 -19t30.5 -54q0 -38 -52 -75q70 -25 70 -89q0 -60 -48.5 -91t-112.5 -31q-73 0 -73 31q0 10 9.5 15.5t19.5 5.5q11 0 39 -11.5t46 -11.5q26 0 46 18.5t20 44.5q0 42 -31.5 62t-82.5 20v14q35 2 62 22t27 54q0 26 -16.5 40t-43.5 14
q-42 0 -71 -43z" />
    <glyph glyph-name="acute" unicode="&#xb4;" horiz-adv-x="333" 
d="M166 715h109l-143 -169h-17z" />
    <glyph glyph-name="mu" unicode="&#xb5;" 
d="M58 447h81v-273q0 -21 0.5 -33.5t4 -33t10.5 -32t21 -20.5t34 -9q60 0 114 66v335h81v-328q0 -80 33 -80q18 0 27.5 19t11.5 41h21q-1 -47 -26 -80t-70 -33q-72 0 -78 93q-75 -93 -154 -93q-46 0 -73 39h-2q0 -47 11.5 -108t11.5 -79q0 -21 -13 -37.5t-33 -16.5
q-21 0 -32 16t-11 38q0 18 15 89.5t15 140.5v379z" />
    <glyph glyph-name="paragraph" unicode="&#xb6;" horiz-adv-x="453" 
d="M393 635v-851h-36v851h-91v-851h-36v509q-106 0 -170 44t-64 140q0 88 56.5 136.5t161.5 48.5h243v-27h-64z" />
    <glyph glyph-name="periodcentered" unicode="&#xb7;" horiz-adv-x="250" 
d="M125 277q-23 0 -38.5 15.5t-15.5 38.5t15.5 38.5t38.5 15.5t38.5 -15.5t15.5 -38.5t-15.5 -38.5t-38.5 -15.5z" />
    <glyph glyph-name="cedilla" unicode="&#xb8;" horiz-adv-x="333" 
d="M110 -47l65 35q38 0 60.5 -18t22.5 -51q0 -42 -38.5 -67.5t-82.5 -25.5q-29 0 -61 8l4 19q27 -9 38 -9q23 0 42.5 15.5t19.5 37.5q0 26 -21 40t-49 16z" />
    <glyph glyph-name="onesuperior" unicode="&#xb9;" horiz-adv-x="300" 
d="M65 633l100 43h19v-296q0 -28 7 -33t43 -5v-18h-161v18q36 0 43 5t7 33v177q0 48 -3 60t-14 12q-8 0 -33 -10z" />
    <glyph glyph-name="ordmasculine" unicode="&#xba;" horiz-adv-x="310" 
d="M297 532q0 -58 -43 -103t-100 -45q-61 0 -101 39.5t-40 100.5q0 66 40.5 109t106.5 43q60 0 98.5 -42t38.5 -102zM229 501q0 30 -7.5 62.5t-29 60.5t-51.5 28q-32 0 -46 -28.5t-14 -64.5q0 -27 7 -59.5t26.5 -62t47.5 -29.5q67 0 67 93z" />
    <glyph glyph-name="guillemotright" unicode="&#xbb;" 
d="M250 456h30l189 -230l-189 -230h-30l121 230zM31 456h30l189 -230l-189 -230h-30l121 230z" />
    <glyph glyph-name="onequarter" unicode="&#xbc;" horiz-adv-x="750" 
d="M737 128v-40h-53v-88h-61v88h-167v36l183 227h45v-223h53zM623 128v154l-2 -2l-125 -152h127zM65 633l100 43h19v-296q0 -28 7 -33t43 -5v-18h-161v18q36 0 43 5t7 33v177q0 48 -3 60t-14 12q-8 0 -33 -10zM631 676l-457 -702h-43l456 702h44z" />
    <glyph glyph-name="onehalf" unicode="&#xbd;" horiz-adv-x="750" 
d="M65 633l100 43h19v-296q0 -28 7 -33t43 -5v-18h-161v18q36 0 43 5t7 33v177q0 48 -3 60t-14 12q-8 0 -33 -10zM619 676l-456 -702h-44l457 702h43zM730 74l-29 -74h-241v18q99 78 135 119q49 56 49 100q0 29 -20.5 49t-50.5 20q-63 0 -81 -56h-22q7 49 38.5 75.5
t80.5 26.5q43 0 79.5 -25.5t36.5 -66.5q0 -14 -5.5 -30t-12.5 -29.5t-21 -30.5l-23 -27.5t-28 -28.5t-27 -24.5l-28 -23.5t-23 -20h103q53 0 69 28h21z" />
    <glyph glyph-name="threequarters" unicode="&#xbe;" horiz-adv-x="750" 
d="M44 592l-18 8q32 76 112 76q37 0 67.5 -19t30.5 -54q0 -38 -52 -75q70 -25 70 -89q0 -60 -48.5 -91t-112.5 -31q-73 0 -73 31q0 10 9.5 15.5t19.5 5.5q11 0 39 -11.5t46 -11.5q26 0 46 18.5t20 44.5q0 42 -31.5 62t-82.5 20v14q35 2 62 22t27 54q0 26 -16.5 40t-43.5 14
q-42 0 -71 -43zM625 676l-456 -702h-44l456 702h44zM737 128v-40h-53v-88h-61v88h-167v36l183 227h45v-223h53zM623 128v154l-2 -2l-125 -152h127z" />
    <glyph glyph-name="questiondown" unicode="&#xbf;" horiz-adv-x="444" 
d="M225 305h20q0 -53 -17.5 -105t-38.5 -87t-38.5 -79.5t-17.5 -85.5q0 -55 29.5 -96t82.5 -41q33 0 63 16t30 47q0 18 -15 44.5t-15 39.5q0 17 11 29.5t28 12.5q25 0 39.5 -24t14.5 -51q0 -54 -44.5 -97.5t-134.5 -43.5q-55 0 -93.5 18t-55.5 45.5t-24 50t-7 41.5
q0 40 19 77.5t46 68l53.5 62t45.5 72.5t19 86zM233 367q-23 0 -38.5 15.5t-15.5 38.5t15.5 38.5t38.5 15.5t38.5 -15.5t15.5 -38.5t-15.5 -38.5t-38.5 -15.5z" />
    <glyph glyph-name="Agrave" unicode="&#xc0;" horiz-adv-x="722" 
d="M459 222h-256l-40 -93q-22 -47 -22 -67q0 -25 20 -33t57 -11v-18h-208v18q38 4 59 25t44 76l238 558h18l225 -540q28 -67 46 -87q27 -30 72 -32v-18h-261v18q35 2 51.5 11t16.5 34q0 16 -24 76zM446 258l-113 267l-115 -267h228zM253 878h109l51 -169h-17z" />
    <glyph glyph-name="Aacute" unicode="&#xc1;" horiz-adv-x="722" 
d="M459 222h-256l-40 -93q-22 -47 -22 -67q0 -25 20 -33t57 -11v-18h-208v18q38 4 59 25t44 76l238 558h18l225 -540q28 -67 46 -87q27 -30 72 -32v-18h-261v18q35 2 51.5 11t16.5 34q0 16 -24 76zM446 258l-113 267l-115 -267h228zM361 878h109l-143 -169h-17z" />
    <glyph glyph-name="Acircumflex" unicode="&#xc2;" horiz-adv-x="722" 
d="M459 222h-256l-40 -93q-22 -47 -22 -67q0 -25 20 -33t57 -11v-18h-208v18q38 4 59 25t44 76l238 558h18l225 -540q28 -67 46 -87q27 -30 72 -32v-18h-261v18q35 2 51.5 11t16.5 34q0 16 -24 76zM446 258l-113 267l-115 -267h228zM316 865h90l93 -161h-16l-122 103
l-122 -103h-16z" />
    <glyph glyph-name="Atilde" unicode="&#xc3;" horiz-adv-x="722" 
d="M459 222h-256l-40 -93q-22 -47 -22 -67q0 -25 20 -33t57 -11v-18h-208v18q38 4 59 25t44 76l238 558h18l225 -540q28 -67 46 -87q27 -30 72 -32v-18h-261v18q35 2 51.5 11t16.5 34q0 16 -24 76zM446 258l-113 267l-115 -267h228zM221 714h-15q-1 52 22 90t71 38
q34 0 86 -34t71 -34q37 0 47 68h15q1 -52 -22 -90t-71 -38q-34 0 -86 34t-71 34q-37 0 -47 -68z" />
    <glyph glyph-name="Adieresis" unicode="&#xc4;" horiz-adv-x="722" 
d="M459 222h-256l-40 -93q-22 -47 -22 -67q0 -25 20 -33t57 -11v-18h-208v18q38 4 59 25t44 76l238 558h18l225 -540q28 -67 46 -87q27 -30 72 -32v-18h-261v18q35 2 51.5 11t16.5 34q0 16 -24 76zM446 258l-113 267l-115 -267h228zM276 725q-22 0 -38 15.5t-16 38.5
t16 38.5t38 15.5t38 -15.5t16 -38.5t-16 -38.5t-38 -15.5zM447 725q-23 0 -38.5 15.5t-15.5 38.5t15.5 38.5t38.5 15.5t38.5 -15.5t15.5 -38.5t-15.5 -38.5t-38.5 -15.5z" />
    <glyph glyph-name="Aring" unicode="&#xc5;" horiz-adv-x="722" 
d="M459 222h-256l-40 -93q-22 -47 -22 -67q0 -25 20 -33t57 -11v-18h-208v18q38 4 59 25t44 76l238 558h18l225 -540q28 -67 46 -87q27 -30 72 -32v-18h-261v18q35 2 51.5 11t16.5 34q0 16 -24 76zM446 258l-113 267l-115 -267h228zM262 737q0 39 27.5 66.5t66.5 27.5
t66.5 -27.5t27.5 -66.5t-27.5 -66.5t-66.5 -27.5t-66.5 27.5t-27.5 66.5zM296 737q0 -25 17.5 -42.5t42.5 -17.5t42.5 17.5t17.5 42.5t-17.5 42.5t-42.5 17.5t-42.5 -17.5t-17.5 -42.5z" />
    <glyph glyph-name="AE" unicode="&#xc6;" horiz-adv-x="889" 
d="M409 256h-192l-55 -103q-40 -69 -40 -93q0 -36 76 -42v-18h-208v18q55 0 105 93l207 389q43 79 43 104q0 40 -84 40v18h544l9 -145h-20q-14 73 -40 91t-100 18h-151v-262h115q64 0 88 17t28 80h18v-231h-18q-6 63 -29 80.5t-87 17.5h-115v-242q0 -30 11 -40t43 -10h118
q62 0 95.5 28t76.5 102h19l-56 -166h-495v18q35 0 54 4t28 20t10.5 31.5t1.5 53.5v129zM407 623l-171 -331h173v331h-2z" />
    <glyph glyph-name="Ccedilla" unicode="&#xc7;" horiz-adv-x="667" 
d="M356 -15l-10 -16q61 -15 61 -71q0 -40 -32 -64t-73 -24q-22 0 -46 3v21q16 -2 24 -2q23 0 41 15.5t18 38.5q0 39 -52 35l40 65q-134 15 -212.5 105t-78.5 230q0 149 94.5 252.5t242.5 103.5q69 0 142 -35q19 -11 29 -11q30 0 41 46h17l15 -225h-15q-56 190 -221 190
q-65 0 -112.5 -28.5t-73 -77t-37 -102t-11.5 -114.5q0 -128 62 -210t186 -82q75 0 123.5 33.5t98.5 103.5l15 -10q-96 -170 -276 -170z" />
    <glyph glyph-name="Egrave" unicode="&#xc8;" horiz-adv-x="611" 
d="M207 626v-262h133q64 0 88 17t28 80h18v-231h-18q-6 63 -29 80.5t-87 17.5h-133v-242q0 -30 11 -40t43 -10h136q62 0 95.5 28t76.5 102h19l-56 -166h-513v18q35 0 54 4t28 20t10.5 31.5t1.5 53.5v408q0 38 -1.5 53.5t-10.5 31.5t-28 20t-54 4v18h508l9 -145h-20
q-14 73 -40 91t-100 18h-169zM197 878h109l51 -169h-17z" />
    <glyph glyph-name="Eacute" unicode="&#xc9;" horiz-adv-x="611" 
d="M207 626v-262h133q64 0 88 17t28 80h18v-231h-18q-6 63 -29 80.5t-87 17.5h-133v-242q0 -30 11 -40t43 -10h136q62 0 95.5 28t76.5 102h19l-56 -166h-513v18q35 0 54 4t28 20t10.5 31.5t1.5 53.5v408q0 38 -1.5 53.5t-10.5 31.5t-28 20t-54 4v18h508l9 -145h-20
q-14 73 -40 91t-100 18h-169zM305 878h109l-143 -169h-17z" />
    <glyph glyph-name="Ecircumflex" unicode="&#xca;" horiz-adv-x="611" 
d="M207 626v-262h133q64 0 88 17t28 80h18v-231h-18q-6 63 -29 80.5t-87 17.5h-133v-242q0 -30 11 -40t43 -10h136q62 0 95.5 28t76.5 102h19l-56 -166h-513v18q35 0 54 4t28 20t10.5 31.5t1.5 53.5v408q0 38 -1.5 53.5t-10.5 31.5t-28 20t-54 4v18h508l9 -145h-20
q-14 73 -40 91t-100 18h-169zM260 865h90l93 -161h-16l-122 103l-122 -103h-16z" />
    <glyph glyph-name="Edieresis" unicode="&#xcb;" horiz-adv-x="611" 
d="M207 626v-262h133q64 0 88 17t28 80h18v-231h-18q-6 63 -29 80.5t-87 17.5h-133v-242q0 -30 11 -40t43 -10h136q62 0 95.5 28t76.5 102h19l-56 -166h-513v18q35 0 54 4t28 20t10.5 31.5t1.5 53.5v408q0 38 -1.5 53.5t-10.5 31.5t-28 20t-54 4v18h508l9 -145h-20
q-14 73 -40 91t-100 18h-169zM220 725q-22 0 -38 15.5t-16 38.5t16 38.5t38 15.5t38 -15.5t16 -38.5t-16 -38.5t-38 -15.5zM391 725q-23 0 -38.5 15.5t-15.5 38.5t15.5 38.5t38.5 15.5t38.5 -15.5t15.5 -38.5t-15.5 -38.5t-38.5 -15.5z" />
    <glyph glyph-name="Igrave" unicode="&#xcc;" horiz-adv-x="333" 
d="M213 535v-408q0 -38 1.5 -53.5t10.5 -31.5t28 -20t54 -4v-18h-282v18q35 0 54 4t28 20t10.5 31.5t1.5 53.5v408q0 38 -1.5 53.5t-10.5 31.5t-28 20t-54 4v18h282v-18q-35 0 -54 -4t-28 -20t-10.5 -31.5t-1.5 -53.5zM58 878h109l51 -169h-17z" />
    <glyph glyph-name="Iacute" unicode="&#xcd;" horiz-adv-x="333" 
d="M213 535v-408q0 -38 1.5 -53.5t10.5 -31.5t28 -20t54 -4v-18h-282v18q35 0 54 4t28 20t10.5 31.5t1.5 53.5v408q0 38 -1.5 53.5t-10.5 31.5t-28 20t-54 4v18h282v-18q-35 0 -54 -4t-28 -20t-10.5 -31.5t-1.5 -53.5zM166 878h109l-143 -169h-17z" />
    <glyph glyph-name="Icircumflex" unicode="&#xce;" horiz-adv-x="333" 
d="M213 535v-408q0 -38 1.5 -53.5t10.5 -31.5t28 -20t54 -4v-18h-282v18q35 0 54 4t28 20t10.5 31.5t1.5 53.5v408q0 38 -1.5 53.5t-10.5 31.5t-28 20t-54 4v18h282v-18q-35 0 -54 -4t-28 -20t-10.5 -31.5t-1.5 -53.5zM121 865h90l93 -161h-16l-122 103l-122 -103h-16z" />
    <glyph glyph-name="Idieresis" unicode="&#xcf;" horiz-adv-x="333" 
d="M213 535v-408q0 -38 1.5 -53.5t10.5 -31.5t28 -20t54 -4v-18h-282v18q35 0 54 4t28 20t10.5 31.5t1.5 53.5v408q0 38 -1.5 53.5t-10.5 31.5t-28 20t-54 4v18h282v-18q-35 0 -54 -4t-28 -20t-10.5 -31.5t-1.5 -53.5zM81 725q-23 0 -38.5 15.5t-15.5 38.5t15.5 38.5
t38.5 15.5t38.5 -15.5t15.5 -38.5t-15.5 -38.5t-38.5 -15.5zM252 725q-22 0 -38 15.5t-16 38.5t16 38.5t38 15.5t38 -15.5t16 -38.5t-16 -38.5t-38 -15.5z" />
    <glyph glyph-name="Eth" unicode="&#xd0;" horiz-adv-x="722" 
d="M113 328h-95v36h95v171q0 38 -1.5 53.5t-10.5 31.5t-28 20t-54 4v18h256q58 0 97 -2.5t91.5 -15.5t88.5 -37q66 -44 99.5 -116.5t33.5 -156.5q0 -144 -93 -239t-265 -95h-308v18q35 0 54 4t28 20t10.5 31.5t1.5 53.5v201zM207 364h192v-36h-192v-279q55 -13 104 -13
q123 0 192.5 84.5t69.5 210.5q0 128 -70 211.5t-196 83.5q-50 0 -100 -14v-248z" />
    <glyph glyph-name="Ntilde" unicode="&#xd1;" horiz-adv-x="722" 
d="M162 521v-394q0 -38 1.5 -53.5t10.5 -31.5t28 -20t54 -4v-18h-231v18q35 0 54 4t28 20t10.5 31.5t1.5 53.5v448q-30 37 -57 53t-74 16v18h180l403 -495h2v368q0 38 -1.5 53.5t-10.5 31.5t-28 20t-54 4v18h231v-18q-35 0 -54 -4t-28 -20t-10.5 -31.5t-1.5 -53.5v-546h-18
l-434 532h-2zM221 714h-15q-1 52 22 90t71 38q34 0 86 -34t71 -34q37 0 47 68h15q1 -52 -22 -90t-71 -38q-34 0 -86 34t-71 34q-37 0 -47 -68z" />
    <glyph glyph-name="Ograve" unicode="&#xd2;" horiz-adv-x="722" 
d="M361 -15q-144 0 -234 101.5t-90 244.5t90 244.5t234 101.5t234 -101.5t90 -244.5t-90 -244.5t-234 -101.5zM361 21q59 0 102 27t66 73t33.5 98t10.5 112t-10.5 112t-33.5 98t-66 73t-102 27t-102 -27t-66 -73t-33.5 -98t-10.5 -112t10.5 -112t33.5 -98t66 -73t102 -27z
M253 878h109l51 -169h-17z" />
    <glyph glyph-name="Oacute" unicode="&#xd3;" horiz-adv-x="722" 
d="M361 -15q-144 0 -234 101.5t-90 244.5t90 244.5t234 101.5t234 -101.5t90 -244.5t-90 -244.5t-234 -101.5zM361 21q59 0 102 27t66 73t33.5 98t10.5 112t-10.5 112t-33.5 98t-66 73t-102 27t-102 -27t-66 -73t-33.5 -98t-10.5 -112t10.5 -112t33.5 -98t66 -73t102 -27z
M361 878h109l-143 -169h-17z" />
    <glyph glyph-name="Ocircumflex" unicode="&#xd4;" horiz-adv-x="722" 
d="M361 -15q-144 0 -234 101.5t-90 244.5t90 244.5t234 101.5t234 -101.5t90 -244.5t-90 -244.5t-234 -101.5zM361 21q59 0 102 27t66 73t33.5 98t10.5 112t-10.5 112t-33.5 98t-66 73t-102 27t-102 -27t-66 -73t-33.5 -98t-10.5 -112t10.5 -112t33.5 -98t66 -73t102 -27z
M316 865h90l93 -161h-16l-122 103l-122 -103h-16z" />
    <glyph glyph-name="Otilde" unicode="&#xd5;" horiz-adv-x="722" 
d="M361 -15q-144 0 -234 101.5t-90 244.5t90 244.5t234 101.5t234 -101.5t90 -244.5t-90 -244.5t-234 -101.5zM361 21q59 0 102 27t66 73t33.5 98t10.5 112t-10.5 112t-33.5 98t-66 73t-102 27t-102 -27t-66 -73t-33.5 -98t-10.5 -112t10.5 -112t33.5 -98t66 -73t102 -27z
M221 714h-15q-1 52 22 90t71 38q34 0 86 -34t71 -34q37 0 47 68h15q1 -52 -22 -90t-71 -38q-34 0 -86 34t-71 34q-37 0 -47 -68z" />
    <glyph glyph-name="Odieresis" unicode="&#xd6;" horiz-adv-x="722" 
d="M361 -15q-144 0 -234 101.5t-90 244.5t90 244.5t234 101.5t234 -101.5t90 -244.5t-90 -244.5t-234 -101.5zM361 21q59 0 102 27t66 73t33.5 98t10.5 112t-10.5 112t-33.5 98t-66 73t-102 27t-102 -27t-66 -73t-33.5 -98t-10.5 -112t10.5 -112t33.5 -98t66 -73t102 -27z
M276 725q-22 0 -38 15.5t-16 38.5t16 38.5t38 15.5t38 -15.5t16 -38.5t-16 -38.5t-38 -15.5zM447 725q-23 0 -38.5 15.5t-15.5 38.5t15.5 38.5t38.5 15.5t38.5 -15.5t15.5 -38.5t-15.5 -38.5t-38.5 -15.5z" />
    <glyph glyph-name="multiply" unicode="&#xd7;" horiz-adv-x="564" 
d="M81 159l173 173l-173 173l28 28l173 -173l173 173l28 -28l-173 -173l173 -173l-28 -28l-173 173l-173 -173z" />
    <glyph glyph-name="Oslash" unicode="&#xd8;" horiz-adv-x="722" 
d="M538 519l-334 -414q53 -84 157 -84q59 0 102 27t66 73t33.5 98t10.5 112q0 115 -35 188zM185 140l335 413q-51 88 -159 88q-59 0 -102 -27t-66 -73t-33.5 -98t-10.5 -112q0 -115 36 -191zM653 662l-64 -80q96 -101 96 -251q0 -143 -90 -244.5t-234 -101.5q-114 0 -199 69
l-62 -77l-29 23l64 79q-98 100 -98 252q0 143 90 244.5t234 101.5q116 0 202 -71l62 77z" />
    <glyph glyph-name="Ugrave" unicode="&#xd9;" horiz-adv-x="722" 
d="M103 237v298q0 38 -1.5 53.5t-10.5 31.5t-28 20t-54 4v18h282v-18q-35 0 -54 -4t-28 -20t-10.5 -31.5t-1.5 -53.5v-264q0 -100 16 -147t59 -71.5t96 -24.5q52 0 100 20.5t75 60.5q32 48 32 180v246q0 38 -1.5 53.5t-10.5 31.5t-28 20t-54 4v18h231v-18q-35 0 -54 -4
t-28 -20t-10.5 -31.5t-1.5 -53.5v-295q0 -39 -6.5 -73t-24 -68.5t-45 -58.5t-73.5 -39.5t-106 -15.5q-62 0 -108.5 14t-75 36.5t-46 56.5t-24 68.5t-6.5 76.5zM253 878h109l51 -169h-17z" />
    <glyph glyph-name="Uacute" unicode="&#xda;" horiz-adv-x="722" 
d="M103 237v298q0 38 -1.5 53.5t-10.5 31.5t-28 20t-54 4v18h282v-18q-35 0 -54 -4t-28 -20t-10.5 -31.5t-1.5 -53.5v-264q0 -100 16 -147t59 -71.5t96 -24.5q52 0 100 20.5t75 60.5q32 48 32 180v246q0 38 -1.5 53.5t-10.5 31.5t-28 20t-54 4v18h231v-18q-35 0 -54 -4
t-28 -20t-10.5 -31.5t-1.5 -53.5v-295q0 -39 -6.5 -73t-24 -68.5t-45 -58.5t-73.5 -39.5t-106 -15.5q-62 0 -108.5 14t-75 36.5t-46 56.5t-24 68.5t-6.5 76.5zM379 878h109l-143 -169h-17z" />
    <glyph glyph-name="Ucircumflex" unicode="&#xdb;" horiz-adv-x="722" 
d="M103 237v298q0 38 -1.5 53.5t-10.5 31.5t-28 20t-54 4v18h282v-18q-35 0 -54 -4t-28 -20t-10.5 -31.5t-1.5 -53.5v-264q0 -100 16 -147t59 -71.5t96 -24.5q52 0 100 20.5t75 60.5q32 48 32 180v246q0 38 -1.5 53.5t-10.5 31.5t-28 20t-54 4v18h231v-18q-35 0 -54 -4
t-28 -20t-10.5 -31.5t-1.5 -53.5v-295q0 -39 -6.5 -73t-24 -68.5t-45 -58.5t-73.5 -39.5t-106 -15.5q-62 0 -108.5 14t-75 36.5t-46 56.5t-24 68.5t-6.5 76.5zM316 865h90l93 -161h-16l-122 103l-122 -103h-16z" />
    <glyph glyph-name="Udieresis" unicode="&#xdc;" horiz-adv-x="722" 
d="M103 237v298q0 38 -1.5 53.5t-10.5 31.5t-28 20t-54 4v18h282v-18q-35 0 -54 -4t-28 -20t-10.5 -31.5t-1.5 -53.5v-264q0 -100 16 -147t59 -71.5t96 -24.5q52 0 100 20.5t75 60.5q32 48 32 180v246q0 38 -1.5 53.5t-10.5 31.5t-28 20t-54 4v18h231v-18q-35 0 -54 -4
t-28 -20t-10.5 -31.5t-1.5 -53.5v-295q0 -39 -6.5 -73t-24 -68.5t-45 -58.5t-73.5 -39.5t-106 -15.5q-62 0 -108.5 14t-75 36.5t-46 56.5t-24 68.5t-6.5 76.5zM276 725q-22 0 -38 15.5t-16 38.5t16 38.5t38 15.5t38 -15.5t16 -38.5t-16 -38.5t-38 -15.5zM447 725
q-23 0 -38.5 15.5t-15.5 38.5t15.5 38.5t38.5 15.5t38.5 -15.5t15.5 -38.5t-15.5 -38.5t-38.5 -15.5z" />
    <glyph glyph-name="Yacute" unicode="&#xdd;" horiz-adv-x="722" 
d="M388 324l123 194q36 57 36 78q0 48 -67 48v18h231v-18q-44 0 -74.5 -25t-60.5 -73l-168 -265v-154q0 -38 1.5 -53.5t10.5 -31.5t28 -20t54 -4v-18h-282v18q35 0 54 4t28 20t10.5 31.5t1.5 53.5v145l-205 312q-18 28 -44 44t-52 16v18h283v-18q-77 0 -77 -44q0 -13 22 -49
zM396 878h109l-143 -169h-17z" />
    <glyph glyph-name="Thorn" unicode="&#xde;" horiz-adv-x="556" 
d="M113 127v408q0 38 -1.5 53.5t-10.5 31.5t-28 20t-54 4v18h282v-18q-35 0 -54 -4t-28 -20t-10.5 -31.5t-1.5 -53.5v-23h71q70 0 120 -17t75 -45.5t35.5 -58t10.5 -62.5q0 -74 -57 -127t-172 -53h-83v-22q0 -38 1.5 -53.5t10.5 -31.5t28 -20t54 -4v-18h-282v18q35 0 54 4
t28 20t10.5 31.5t1.5 53.5zM207 476v-291h55q65 0 105 40.5t40 110.5q0 69 -49 104.5t-128 35.5h-23z" />
    <glyph glyph-name="germandbls" unicode="&#xdf;" 
d="M162 0h-150v18q38 1 53.5 13.5t15.5 53.5v390q0 219 174 219q74 0 123 -42t49 -115q0 -101 -93 -135v-2q67 -15 99.5 -68t32.5 -126q0 -82 -43 -147t-120 -65q-37 0 -65 21.5t-28 57.5q0 42 42 42q18 0 28.5 -11t10.5 -29q0 -5 -3.5 -14t-3.5 -15q0 -10 8 -16t19 -6
q29 0 46.5 23.5t22.5 49.5t5 55q0 39 -6.5 75t-22 71.5t-45.5 57t-71 22.5v28q59 -2 82.5 35.5t23.5 99.5q0 51 -22 85t-71 34q-22 0 -38.5 -6.5t-26 -21t-15 -28t-8 -36.5t-3 -36.5t-0.5 -37.5v-494z" />
    <glyph glyph-name="agrave" unicode="&#xe0;" horiz-adv-x="444" 
d="M363 340v-215q0 -22 0.5 -32t2.5 -22.5t7.5 -17.5t14.5 -5q13 0 52 39v-28q-56 -73 -104 -73q-54 0 -54 73q-7 -5 -31 -24t-35 -26t-32 -15t-43 -8q-50 0 -78.5 33t-28.5 84q0 27 13.5 50.5t32 40t48.5 32.5t53 25l55 21.5t46 18.5q0 27 -1 44t-5.5 37t-13 31.5
t-24.5 19.5t-38 8q-27 0 -47 -15.5t-20 -43.5q0 -37 -9 -54t-32 -17q-20 0 -30.5 13.5t-10.5 34.5q0 13 7 29.5t23.5 36t52 33t82.5 13.5q42 0 71.5 -10.5t44 -23.5t22 -33t8.5 -30t1 -24zM282 91v171q-92 -37 -122 -60q-45 -34 -45 -78q0 -32 20 -57t51 -25q37 0 96 49z
M114 682h109l51 -169h-17z" />
    <glyph glyph-name="aacute" unicode="&#xe1;" horiz-adv-x="444" 
d="M363 340v-215q0 -22 0.5 -32t2.5 -22.5t7.5 -17.5t14.5 -5q13 0 52 39v-28q-56 -73 -104 -73q-54 0 -54 73q-7 -5 -31 -24t-35 -26t-32 -15t-43 -8q-50 0 -78.5 33t-28.5 84q0 27 13.5 50.5t32 40t48.5 32.5t53 25l55 21.5t46 18.5q0 27 -1 44t-5.5 37t-13 31.5
t-24.5 19.5t-38 8q-27 0 -47 -15.5t-20 -43.5q0 -37 -9 -54t-32 -17q-20 0 -30.5 13.5t-10.5 34.5q0 13 7 29.5t23.5 36t52 33t82.5 13.5q42 0 71.5 -10.5t44 -23.5t22 -33t8.5 -30t1 -24zM282 91v171q-92 -37 -122 -60q-45 -34 -45 -78q0 -32 20 -57t51 -25q37 0 96 49z
M222 682h109l-143 -169h-17z" />
    <glyph glyph-name="acircumflex" unicode="&#xe2;" horiz-adv-x="444" 
d="M363 340v-215q0 -22 0.5 -32t2.5 -22.5t7.5 -17.5t14.5 -5q13 0 52 39v-28q-56 -73 -104 -73q-54 0 -54 73q-7 -5 -31 -24t-35 -26t-32 -15t-43 -8q-50 0 -78.5 33t-28.5 84q0 27 13.5 50.5t32 40t48.5 32.5t53 25l55 21.5t46 18.5q0 27 -1 44t-5.5 37t-13 31.5
t-24.5 19.5t-38 8q-27 0 -47 -15.5t-20 -43.5q0 -37 -9 -54t-32 -17q-20 0 -30.5 13.5t-10.5 34.5q0 13 7 29.5t23.5 36t52 33t82.5 13.5q42 0 71.5 -10.5t44 -23.5t22 -33t8.5 -30t1 -24zM282 91v171q-92 -37 -122 -60q-45 -34 -45 -78q0 -32 20 -57t51 -25q37 0 96 49z
M177 677h90l93 -161h-16l-122 103l-122 -103h-16z" />
    <glyph glyph-name="atilde" unicode="&#xe3;" horiz-adv-x="444" 
d="M363 340v-215q0 -22 0.5 -32t2.5 -22.5t7.5 -17.5t14.5 -5q13 0 52 39v-28q-56 -73 -104 -73q-54 0 -54 73q-7 -5 -31 -24t-35 -26t-32 -15t-43 -8q-50 0 -78.5 33t-28.5 84q0 27 13.5 50.5t32 40t48.5 32.5t53 25l55 21.5t46 18.5q0 27 -1 44t-5.5 37t-13 31.5
t-24.5 19.5t-38 8q-27 0 -47 -15.5t-20 -43.5q0 -37 -9 -54t-32 -17q-20 0 -30.5 13.5t-10.5 34.5q0 13 7 29.5t23.5 36t52 33t82.5 13.5q42 0 71.5 -10.5t44 -23.5t22 -33t8.5 -30t1 -24zM282 91v171q-92 -37 -122 -60q-45 -34 -45 -78q0 -32 20 -57t51 -25q37 0 96 49z
M82 535h-15q-1 52 22 90t71 38q34 0 86 -34t71 -34q37 0 47 68h15q1 -52 -22 -90t-71 -38q-34 0 -86 34t-71 34q-37 0 -47 -68z" />
    <glyph glyph-name="adieresis" unicode="&#xe4;" horiz-adv-x="444" 
d="M363 340v-215q0 -22 0.5 -32t2.5 -22.5t7.5 -17.5t14.5 -5q13 0 52 39v-28q-56 -73 -104 -73q-54 0 -54 73q-7 -5 -31 -24t-35 -26t-32 -15t-43 -8q-50 0 -78.5 33t-28.5 84q0 27 13.5 50.5t32 40t48.5 32.5t53 25l55 21.5t46 18.5q0 27 -1 44t-5.5 37t-13 31.5
t-24.5 19.5t-38 8q-27 0 -47 -15.5t-20 -43.5q0 -37 -9 -54t-32 -17q-20 0 -30.5 13.5t-10.5 34.5q0 13 7 29.5t23.5 36t52 33t82.5 13.5q42 0 71.5 -10.5t44 -23.5t22 -33t8.5 -30t1 -24zM282 91v171q-92 -37 -122 -60q-45 -34 -45 -78q0 -32 20 -57t51 -25q37 0 96 49z
M137 547q-23 0 -38.5 15.5t-15.5 38.5t15.5 38.5t38.5 15.5t38.5 -15.5t15.5 -38.5t-15.5 -38.5t-38.5 -15.5zM308 547q-22 0 -38 15.5t-16 38.5t16 38.5t38 15.5t38 -15.5t16 -38.5t-16 -38.5t-38 -15.5z" />
    <glyph glyph-name="aring" unicode="&#xe5;" horiz-adv-x="444" 
d="M363 340v-215q0 -22 0.5 -32t2.5 -22.5t7.5 -17.5t14.5 -5q13 0 52 39v-28q-56 -73 -104 -73q-54 0 -54 73q-7 -5 -31 -24t-35 -26t-32 -15t-43 -8q-50 0 -78.5 33t-28.5 84q0 27 13.5 50.5t32 40t48.5 32.5t53 25l55 21.5t46 18.5q0 27 -1 44t-5.5 37t-13 31.5
t-24.5 19.5t-38 8q-27 0 -47 -15.5t-20 -43.5q0 -37 -9 -54t-32 -17q-20 0 -30.5 13.5t-10.5 34.5q0 13 7 29.5t23.5 36t52 33t82.5 13.5q42 0 71.5 -10.5t44 -23.5t22 -33t8.5 -30t1 -24zM282 91v171q-92 -37 -122 -60q-45 -34 -45 -78q0 -32 20 -57t51 -25q37 0 96 49z
M129 599q0 39 27.5 66.5t66.5 27.5t66.5 -27.5t27.5 -66.5t-27.5 -66.5t-66.5 -27.5t-66.5 27.5t-27.5 66.5zM163 599q0 -25 17.5 -42.5t42.5 -17.5t42.5 17.5t17.5 42.5t-17.5 42.5t-42.5 17.5t-42.5 -17.5t-17.5 -42.5z" />
    <glyph glyph-name="ae" unicode="&#xe6;" horiz-adv-x="667" 
d="M635 278h-281v-54q0 -87 37 -125.5t89 -38.5q96 0 139 107l16 -11q-18 -72 -64 -121t-115 -49q-51 0 -83 18t-64 60q-51 -42 -87.5 -60t-76.5 -18q-33 0 -56.5 13t-34.5 33t-15.5 37t-4.5 31q0 82 94 125l145 67v28q0 20 -0.5 31t-4 29t-11 27t-22 16.5t-35.5 7.5
q-27 0 -47 -15.5t-20 -43.5q0 -37 -9 -54t-32 -17q-20 0 -30.5 13.5t-10.5 34.5q0 13 7 29.5t23.5 36t52 33t82.5 13.5q105 0 129 -60q42 60 129 60q79 0 120.5 -51.5t40.5 -131.5zM296 90q-23 49 -23 171q-88 -36 -123 -65t-35 -70q0 -37 22 -62t58 -25q37 0 101 51z
M354 308h185q0 51 -21 84t-66 33q-47 0 -72 -34t-26 -83z" />
    <glyph glyph-name="ccedilla" unicode="&#xe7;" horiz-adv-x="444" 
d="M245 -13l-11 -18q61 -15 61 -71q0 -40 -32 -64t-73 -24q-22 0 -46 3v21q16 -2 24 -2q23 0 41 15.5t18 38.5q0 39 -52 35l40 65q-59 4 -101 40.5t-61 87.5t-19 109q0 98 59 167.5t155 69.5q52 0 101 -29t49 -78q0 -20 -12.5 -30.5t-32.5 -10.5q-31 0 -43 18t-12 40
t-15.5 40t-51.5 18q-59 0 -88.5 -49.5t-29.5 -113.5q0 -47 14 -91t49 -78t83 -34q51 0 82.5 30.5t55.5 84.5l14 -7q-14 -73 -55.5 -122t-110.5 -61z" />
    <glyph glyph-name="egrave" unicode="&#xe8;" horiz-adv-x="444" 
d="M412 278h-310q0 -83 42.5 -147.5t118.5 -64.5q96 0 134 107l15 -10q-14 -74 -62.5 -125.5t-120.5 -51.5q-83 0 -139 64.5t-56 165.5q0 104 53 174.5t154 70.5q77 0 124 -51t47 -132zM103 308h207q0 50 -26 83.5t-76 33.5q-42 0 -72 -35.5t-33 -81.5zM117 682h109l51 -169
h-17z" />
    <glyph glyph-name="eacute" unicode="&#xe9;" horiz-adv-x="444" 
d="M412 278h-310q0 -83 42.5 -147.5t118.5 -64.5q96 0 134 107l15 -10q-14 -74 -62.5 -125.5t-120.5 -51.5q-83 0 -139 64.5t-56 165.5q0 104 53 174.5t154 70.5q77 0 124 -51t47 -132zM103 308h207q0 50 -26 83.5t-76 33.5q-42 0 -72 -35.5t-33 -81.5zM227 682h109
l-143 -169h-17z" />
    <glyph glyph-name="ecircumflex" unicode="&#xea;" horiz-adv-x="444" 
d="M412 278h-310q0 -83 42.5 -147.5t118.5 -64.5q96 0 134 107l15 -10q-14 -74 -62.5 -125.5t-120.5 -51.5q-83 0 -139 64.5t-56 165.5q0 104 53 174.5t154 70.5q77 0 124 -51t47 -132zM103 308h207q0 50 -26 83.5t-76 33.5q-42 0 -72 -35.5t-33 -81.5zM182 677h90l93 -161
h-16l-122 103l-122 -103h-16z" />
    <glyph glyph-name="edieresis" unicode="&#xeb;" horiz-adv-x="444" 
d="M412 278h-310q0 -83 42.5 -147.5t118.5 -64.5q96 0 134 107l15 -10q-14 -74 -62.5 -125.5t-120.5 -51.5q-83 0 -139 64.5t-56 165.5q0 104 53 174.5t154 70.5q77 0 124 -51t47 -132zM103 308h207q0 50 -26 83.5t-76 33.5q-42 0 -72 -35.5t-33 -81.5zM142 547
q-22 0 -38 15.5t-16 38.5t16 38.5t38 15.5t38 -15.5t16 -38.5t-16 -38.5t-38 -15.5zM313 547q-23 0 -38.5 15.5t-15.5 38.5t15.5 38.5t38.5 15.5t38.5 -15.5t15.5 -38.5t-15.5 -38.5t-38.5 -15.5z" />
    <glyph glyph-name="igrave" unicode="&#xec;" horiz-adv-x="278" 
d="M184 461v-376q0 -41 15.5 -53.5t53.5 -13.5v-18h-219v18q38 1 53.5 13.5t15.5 53.5v244q0 24 -3 39t-9.5 20.5t-11 7t-11.5 1.5q-14 0 -34 -8l-7 17l135 55h22zM31 682h109l51 -169h-17z" />
    <glyph glyph-name="iacute" unicode="&#xed;" horiz-adv-x="278" 
d="M184 461v-376q0 -41 15.5 -53.5t53.5 -13.5v-18h-219v18q38 1 53.5 13.5t15.5 53.5v244q0 24 -3 39t-9.5 20.5t-11 7t-11.5 1.5q-14 0 -34 -8l-7 17l135 55h22zM139 682h109l-143 -169h-17z" />
    <glyph glyph-name="icircumflex" unicode="&#xee;" horiz-adv-x="278" 
d="M184 461v-376q0 -41 15.5 -53.5t53.5 -13.5v-18h-219v18q38 1 53.5 13.5t15.5 53.5v244q0 24 -3 39t-9.5 20.5t-11 7t-11.5 1.5q-14 0 -34 -8l-7 17l135 55h22zM94 677h90l93 -161h-16l-122 103l-122 -103h-16z" />
    <glyph glyph-name="idieresis" unicode="&#xef;" horiz-adv-x="278" 
d="M184 461v-376q0 -41 15.5 -53.5t53.5 -13.5v-18h-219v18q38 1 53.5 13.5t15.5 53.5v244q0 24 -3 39t-9.5 20.5t-11 7t-11.5 1.5q-14 0 -34 -8l-7 17l135 55h22zM54 547q-22 0 -38 15.5t-16 38.5t16 38.5t38 15.5t38 -15.5t16 -38.5t-16 -38.5t-38 -15.5zM225 547
q-23 0 -38.5 15.5t-15.5 38.5t15.5 38.5t38.5 15.5t38.5 -15.5t15.5 -38.5t-15.5 -38.5t-38.5 -15.5z" />
    <glyph glyph-name="eth" unicode="&#xf0;" 
d="M232 572l-127 -69l-14 26l119 68q-46 49 -95 77l20 20q60 -29 115 -74l135 74l17 -27l-123 -70q82 -69 134.5 -164.5t52.5 -192.5q0 -43 -13 -86t-38.5 -81.5t-70 -62.5t-100.5 -24q-92 0 -151 69.5t-59 163.5q0 90 58 164t148 74q51 0 80 -29l2 2q-32 73 -90 142z
M234 427q-44 0 -76.5 -39t-32.5 -126q0 -36 7 -74.5t22 -78t44.5 -64.5t68.5 -25q42 0 68 30t33 65t7 77q0 37 -7 74.5t-21.5 75t-44 61.5t-68.5 24z" />
    <glyph glyph-name="ntilde" unicode="&#xf1;" 
d="M162 461v-94q46 50 79 72t73 22q57 0 85 -44t28 -107v-225q0 -41 15.5 -53.5t53.5 -13.5v-18h-219v18q38 1 53.5 13.5t15.5 53.5v207q0 66 -20.5 87.5t-50.5 21.5q-51 0 -113 -64v-252q0 -41 15.5 -53.5t53.5 -13.5v-18h-219v18q38 1 53.5 13.5t15.5 53.5v244q0 24 -3 39
t-9.5 20.5t-11 7t-11.5 1.5q-14 0 -34 -8l-7 17l135 55h22zM110 535h-15q-1 52 22 90t71 38q34 0 86 -34t71 -34q37 0 47 68h15q1 -52 -22 -90t-71 -38q-34 0 -86 34t-71 34q-37 0 -47 -68z" />
    <glyph glyph-name="ograve" unicode="&#xf2;" 
d="M251 461q92 0 153.5 -67t61.5 -160q0 -56 -21.5 -110.5t-74 -96t-126.5 -41.5q-92 0 -151 69.5t-59 163.5q0 96 61 169t156 73zM234 427q-44 0 -76.5 -39t-32.5 -126q0 -36 7 -74.5t22 -78t44.5 -64.5t68.5 -25q42 0 68 30t33 65t7 77q0 37 -7 74.5t-21.5 75t-44 61.5
t-68.5 24zM142 682h109l51 -169h-17z" />
    <glyph glyph-name="oacute" unicode="&#xf3;" 
d="M251 461q92 0 153.5 -67t61.5 -160q0 -56 -21.5 -110.5t-74 -96t-126.5 -41.5q-92 0 -151 69.5t-59 163.5q0 96 61 169t156 73zM234 427q-44 0 -76.5 -39t-32.5 -126q0 -36 7 -74.5t22 -78t44.5 -64.5t68.5 -25q42 0 68 30t33 65t7 77q0 37 -7 74.5t-21.5 75t-44 61.5
t-68.5 24zM250 682h109l-143 -169h-17z" />
    <glyph glyph-name="ocircumflex" unicode="&#xf4;" 
d="M251 461q92 0 153.5 -67t61.5 -160q0 -56 -21.5 -110.5t-74 -96t-126.5 -41.5q-92 0 -151 69.5t-59 163.5q0 96 61 169t156 73zM234 427q-44 0 -76.5 -39t-32.5 -126q0 -36 7 -74.5t22 -78t44.5 -64.5t68.5 -25q42 0 68 30t33 65t7 77q0 37 -7 74.5t-21.5 75t-44 61.5
t-68.5 24zM205 677h90l93 -161h-16l-122 103l-122 -103h-16z" />
    <glyph glyph-name="otilde" unicode="&#xf5;" 
d="M251 461q92 0 153.5 -67t61.5 -160q0 -56 -21.5 -110.5t-74 -96t-126.5 -41.5q-92 0 -151 69.5t-59 163.5q0 96 61 169t156 73zM234 427q-44 0 -76.5 -39t-32.5 -126q0 -36 7 -74.5t22 -78t44.5 -64.5t68.5 -25q42 0 68 30t33 65t7 77q0 37 -7 74.5t-21.5 75t-44 61.5
t-68.5 24zM110 535h-15q-1 52 22 90t71 38q34 0 86 -34t71 -34q37 0 47 68h15q1 -52 -22 -90t-71 -38q-34 0 -86 34t-71 34q-37 0 -47 -68z" />
    <glyph glyph-name="odieresis" unicode="&#xf6;" 
d="M251 461q92 0 153.5 -67t61.5 -160q0 -56 -21.5 -110.5t-74 -96t-126.5 -41.5q-92 0 -151 69.5t-59 163.5q0 96 61 169t156 73zM234 427q-44 0 -76.5 -39t-32.5 -126q0 -36 7 -74.5t22 -78t44.5 -64.5t68.5 -25q42 0 68 30t33 65t7 77q0 37 -7 74.5t-21.5 75t-44 61.5
t-68.5 24zM165 547q-23 0 -38.5 15.5t-15.5 38.5t15.5 38.5t38.5 15.5t38.5 -15.5t15.5 -38.5t-15.5 -38.5t-38.5 -15.5zM336 547q-22 0 -38 15.5t-16 38.5t16 38.5t38 15.5t38 -15.5t16 -38.5t-16 -38.5t-38 -15.5z" />
    <glyph glyph-name="divide" unicode="&#xf7;" horiz-adv-x="564" 
d="M545 312h-525v40h525v-40zM282 139q-18 0 -30.5 12.5t-12.5 30.5t12.5 30.5t30.5 12.5t30.5 -12.5t12.5 -30.5t-12.5 -30.5t-30.5 -12.5zM282 439q-18 0 -30.5 12.5t-12.5 30.5t12.5 30.5t30.5 12.5t30.5 -12.5t12.5 -30.5t-12.5 -30.5t-30.5 -12.5z" />
    <glyph glyph-name="oslash" unicode="&#xf8;" 
d="M147 131l195 218q-36 78 -108 78q-44 0 -76.5 -39t-32.5 -126q0 -69 22 -131zM355 317l-195 -217q37 -80 107 -80q42 0 68 30t33 65t7 77q0 69 -20 125zM481 458l-67 -75q52 -63 52 -149q0 -56 -21.5 -110.5t-74 -96t-126.5 -41.5q-78 0 -136 55l-66 -73l-23 21l68 75
q-53 65 -53 155q0 96 61 169t156 73q81 0 142 -55l65 73z" />
    <glyph glyph-name="ugrave" unicode="&#xf9;" 
d="M424 447v-329q0 -24 3 -39t9.5 -20.5t11 -7t11.5 -1.5q14 0 34 8l7 -17l-135 -55h-22v95q-30 -33 -46 -48t-45.5 -31t-60.5 -16q-54 0 -84 41t-30 106v218q0 47 -12.5 62t-61.5 16v18h155v-311q0 -90 75 -90q48 0 110 64v241q0 47 -12.5 62t-61.5 16v18h155zM142 682h109
l51 -169h-17z" />
    <glyph glyph-name="uacute" unicode="&#xfa;" 
d="M424 447v-329q0 -24 3 -39t9.5 -20.5t11 -7t11.5 -1.5q14 0 34 8l7 -17l-135 -55h-22v95q-30 -33 -46 -48t-45.5 -31t-60.5 -16q-54 0 -84 41t-30 106v218q0 47 -12.5 62t-61.5 16v18h155v-311q0 -90 75 -90q48 0 110 64v241q0 47 -12.5 62t-61.5 16v18h155zM250 682h109
l-143 -169h-17z" />
    <glyph glyph-name="ucircumflex" unicode="&#xfb;" 
d="M424 447v-329q0 -24 3 -39t9.5 -20.5t11 -7t11.5 -1.5q14 0 34 8l7 -17l-135 -55h-22v95q-30 -33 -46 -48t-45.5 -31t-60.5 -16q-54 0 -84 41t-30 106v218q0 47 -12.5 62t-61.5 16v18h155v-311q0 -90 75 -90q48 0 110 64v241q0 47 -12.5 62t-61.5 16v18h155zM205 677h90
l93 -161h-16l-122 103l-122 -103h-16z" />
    <glyph glyph-name="udieresis" unicode="&#xfc;" 
d="M424 447v-329q0 -24 3 -39t9.5 -20.5t11 -7t11.5 -1.5q14 0 34 8l7 -17l-135 -55h-22v95q-30 -33 -46 -48t-45.5 -31t-60.5 -16q-54 0 -84 41t-30 106v218q0 47 -12.5 62t-61.5 16v18h155v-311q0 -90 75 -90q48 0 110 64v241q0 47 -12.5 62t-61.5 16v18h155zM165 547
q-23 0 -38.5 15.5t-15.5 38.5t15.5 38.5t38.5 15.5t38.5 -15.5t15.5 -38.5t-15.5 -38.5t-38.5 -15.5zM336 547q-22 0 -38 15.5t-16 38.5t16 38.5t38 15.5t38 -15.5t16 -38.5t-16 -38.5t-38 -15.5z" />
    <glyph glyph-name="yacute" unicode="&#xfd;" 
d="M246 18l-156 326q-11 23 -20 38t-26.5 30t-37.5 17v18h208v-18q-27 0 -40.5 -7t-13.5 -29q0 -13 21 -61l104 -214l95 235q13 33 13 51q0 16 -10.5 20.5t-34.5 4.5v18h146v-18q-39 0 -60 -52l-191 -468q-26 -64 -69.5 -94.5t-77.5 -30.5q-27 0 -47 15t-20 41
q0 21 14.5 32.5t36.5 11.5q19 0 39.5 -9t26.5 -9q14 0 26 8t22 25t13.5 25l11.5 27zM281 682h109l-143 -169h-17z" />
    <glyph glyph-name="thorn" unicode="&#xfe;" 
d="M154 694v-336h2q60 103 140 103q81 0 124.5 -67.5t43.5 -152.5q0 -102 -54 -178.5t-152 -76.5q-65 0 -104 40v-154q0 -42 15 -54t62 -13v-18h-235v18q47 1 62 13t15 54v690q0 24 -3 39t-9.5 20.5t-11 7t-11.5 1.5q-14 0 -34 -8l-7 17l135 55h22zM154 325v-186
q0 -34 5 -55.5t25 -39.5q28 -28 76 -28q43 0 71.5 31t38 69t9.5 81q0 30 -6.5 61.5t-19.5 62.5t-38 50.5t-58 19.5q-21 0 -41.5 -11.5t-31.5 -22t-30 -32.5z" />
    <glyph glyph-name="ydieresis" unicode="&#xff;" 
d="M246 18l-156 326q-11 23 -20 38t-26.5 30t-37.5 17v18h208v-18q-27 0 -40.5 -7t-13.5 -29q0 -13 21 -61l104 -214l95 235q13 33 13 51q0 16 -10.5 20.5t-34.5 4.5v18h146v-18q-39 0 -60 -52l-191 -468q-26 -64 -69.5 -94.5t-77.5 -30.5q-27 0 -47 15t-20 41
q0 21 14.5 32.5t36.5 11.5q19 0 39.5 -9t26.5 -9q14 0 26 8t22 25t13.5 25l11.5 27zM165 547q-23 0 -38.5 15.5t-15.5 38.5t15.5 38.5t38.5 15.5t38.5 -15.5t15.5 -38.5t-15.5 -38.5t-38.5 -15.5zM336 547q-22 0 -38 15.5t-16 38.5t16 38.5t38 15.5t38 -15.5t16 -38.5
t-16 -38.5t-38 -15.5z" />
    <glyph glyph-name="dotlessi" unicode="&#x131;" horiz-adv-x="278" 
d="M184 461v-376q0 -41 15.5 -53.5t53.5 -13.5v-18h-219v18q38 1 53.5 13.5t15.5 53.5v244q0 24 -3 39t-9.5 20.5t-11 7t-11.5 1.5q-14 0 -34 -8l-7 17l135 55h22z" />
    <glyph glyph-name="Lslash" unicode="&#x141;" horiz-adv-x="611" 
d="M207 525v-134l111 91v-46l-111 -94v-212q0 -19 0.5 -28.5t2.5 -23t6.5 -19.5t13.5 -11t22 -5h148q62 0 101.5 31t70.5 109l16 -3l-57 -180h-512v18q35 0 54 4t28 20t10.5 31.5t1.5 53.5v138l-101 -81v45l101 84v222q0 38 -1.5 53.5t-10.5 31.5t-28 20t-54 4v18h299v-18
q-28 0 -47 -2t-31.5 -9.5t-19 -13.5t-9.5 -23.5t-3.5 -30t-0.5 -40.5z" />
    <glyph glyph-name="lslash" unicode="&#x142;" horiz-adv-x="278" 
d="M184 694v-298l87 71v-41l-87 -71v-270q0 -41 15.5 -53.5t53.5 -13.5v-18h-219v18q38 1 53.5 13.5t15.5 53.5v203l-87 -72v41l87 72v233q0 24 -3 39t-9.5 20.5t-11 7t-11.5 1.5q-14 0 -34 -8l-7 17l135 55h22z" />
    <glyph glyph-name="OE" unicode="&#x152;" horiz-adv-x="889" 
d="M539 626v-262h79q64 0 88 17t28 80h18v-231h-18q-6 63 -29 80.5t-87 17.5h-79v-242q0 -30 11 -40t43 -10h82q62 0 95.5 28t76.5 102h19l-56 -166h-350q-9 0 -19.5 -0.5t-23 -1.5t-19.5 -1q-40 -4 -59 -4q-137 0 -219.5 99t-82.5 239q0 41 9 83.5t32 89t57 82.5t89.5 59.5
t124.5 23.5q22 0 94 -3q48 -4 57 -4h305l9 -145h-20q-14 73 -40 91t-100 18h-115zM445 178v374q0 36 -22.5 59.5t-71.5 23.5q-48 0 -85 -19.5t-58.5 -50t-35 -73t-18.5 -81.5t-5 -83q0 -52 9 -100.5t29.5 -96t61 -76t95.5 -28.5q21 0 37.5 4t27 9t18 17t11 20.5t5.5 27
t2 28.5v34v11z" />
    <glyph glyph-name="oe" unicode="&#x153;" horiz-adv-x="722" 
d="M691 278h-269q0 -56 12 -101.5t43.5 -78t78.5 -32.5q87 0 118 108l17 -9q-33 -179 -167 -179q-89 0 -131 79q-59 -79 -155 -79q-95 0 -149.5 67.5t-54.5 164.5q0 99 55.5 171t151.5 72q99 0 152 -78q52 78 139 78q75 0 117 -49t42 -134zM226 432q-101 0 -101 -172
q0 -34 5.5 -71t18.5 -77t39.5 -66t62.5 -26q99 0 99 165q0 40 -6 79.5t-18.5 79t-38.5 64t-61 24.5zM423 308h172q0 49 -22 83t-65 34q-40 0 -62 -37t-23 -80z" />
    <glyph glyph-name="Scaron" unicode="&#x160;" horiz-adv-x="556" 
d="M460 677v-229h-18q-5 82 -55 136t-130 54q-45 0 -80 -29.5t-35 -73.5q0 -38 37.5 -71t90.5 -60l106 -56t90.5 -73.5t37.5 -98.5q0 -80 -58 -135.5t-151 -55.5q-56 0 -105 19q-54 18 -71 18q-26 0 -30 -37h-18v227h18q4 -46 20.5 -81t37.5 -54.5t48 -32t48.5 -16.5
t41.5 -4q54 0 93 28t39 80q0 42 -36.5 77t-88 62l-103 56.5t-88 73.5t-36.5 99q0 75 58 126t138 51q44 0 90 -19q53 -19 57 -19q16 0 23 10t11 28h18zM323 714h-90l-93 161h16l122 -103l122 103h16z" />
    <glyph glyph-name="scaron" unicode="&#x161;" horiz-adv-x="389" 
d="M323 461v-153h-18q-13 58 -39.5 90.5t-80.5 32.5q-30 0 -53 -16t-23 -45q0 -30 25.5 -52.5t61.5 -38.5t72.5 -34.5t62 -50t25.5 -74.5q0 -59 -46.5 -96.5t-106.5 -37.5q-36 0 -90 15q-15 5 -25 5q-15 0 -18 -13h-18v160h18q7 -55 45 -96t92 -41q32 0 54.5 18t22.5 50
t-24 56t-58 40l-68.5 33t-58.5 46t-24 68q0 61 39 97.5t100 36.5q20 0 57 -11q32 -8 37 -8q14 0 21 19h18zM239 516h-90l-93 161h16l122 -103l122 103h16z" />
    <glyph glyph-name="Ydieresis" unicode="&#x178;" horiz-adv-x="722" 
d="M388 324l123 194q36 57 36 78q0 48 -67 48v18h231v-18q-44 0 -74.5 -25t-60.5 -73l-168 -265v-154q0 -38 1.5 -53.5t10.5 -31.5t28 -20t54 -4v-18h-282v18q35 0 54 4t28 20t10.5 31.5t1.5 53.5v145l-205 312q-18 28 -44 44t-52 16v18h283v-18q-77 0 -77 -44q0 -13 22 -49
zM276 725q-22 0 -38 15.5t-16 38.5t16 38.5t38 15.5t38 -15.5t16 -38.5t-16 -38.5t-38 -15.5zM447 725q-23 0 -38.5 15.5t-15.5 38.5t15.5 38.5t38.5 15.5t38.5 -15.5t15.5 -38.5t-15.5 -38.5t-38.5 -15.5z" />
    <glyph glyph-name="Zcaron" unicode="&#x17d;" horiz-adv-x="611" 
d="M138 40h274q66 0 94 28.5t57 106.5h18l-31 -175h-539v18l424 604h-199q-80 0 -108 -23t-39 -103h-19l14 166h490zM360 714h-90l-93 161h16l122 -103l122 103h16z" />
    <glyph glyph-name="zcaron" unicode="&#x17e;" horiz-adv-x="444" 
d="M419 137l-6 -137h-395v18l297 395h-134q-30 0 -42.5 -1t-28.5 -5t-22 -13.5t-11.5 -26.5t-8.5 -44h-18v124h376v-18l-299 -395h151q72 0 94 16t29 87h18zM273 516h-90l-93 161h16l122 -103l122 103h16z" />
    <glyph glyph-name="florin" unicode="&#x192;" 
d="M343 438h89l-8 -34h-88q-20 -118 -81 -337l-13 -45t-16 -49.5t-21 -55.5t-25.5 -49t-33 -44.5t-39 -27.5t-46.5 -12q-25 0 -43 14t-18 38q0 18 11 31.5t28 13.5q12 0 22 -8.5t10 -19.5q0 -9 -6 -17t-6 -11q0 -11 12 -11q52 0 80 133q70 337 103 457h-88l8 34
q56 0 74.5 15.5t38.5 74.5l15.5 44t19.5 42.5t27 41.5t34 26t46 12q28 0 49 -14.5t21 -41.5q0 -16 -9 -27t-25 -11q-12 0 -21.5 8t-9.5 20q0 7 5 16t5 14q0 13 -16 13t-27.5 -8.5t-18.5 -27t-10.5 -34t-8.5 -44.5z" />
    <glyph glyph-name="circumflex" unicode="&#x2c6;" horiz-adv-x="333" 
d="M121 712h90l93 -161h-16l-122 103l-122 -103h-16z" />
    <glyph glyph-name="caron" unicode="&#x2c7;" horiz-adv-x="333" 
d="M211 551h-90l-93 161h16l122 -103l122 103h16z" />
    <glyph glyph-name="breve" unicode="&#x2d8;" horiz-adv-x="333" 
d="M26 670h16q28 -63 124 -63t124 63h16q-2 -56 -43 -96.5t-97 -40.5t-97 40.5t-43 96.5z" />
    <glyph glyph-name="dotaccent" unicode="&#x2d9;" horiz-adv-x="333" 
d="M167 547q-23 0 -38.5 15.5t-15.5 38.5t15.5 38.5t38.5 15.5t38.5 -15.5t15.5 -38.5t-15.5 -38.5t-38.5 -15.5z" />
    <glyph glyph-name="ring" unicode="&#x2da;" horiz-adv-x="333" 
d="M73 599q0 39 27.5 66.5t66.5 27.5t66.5 -27.5t27.5 -66.5t-27.5 -66.5t-66.5 -27.5t-66.5 27.5t-27.5 66.5zM107 599q0 -25 17.5 -42.5t42.5 -17.5t42.5 17.5t17.5 42.5t-17.5 42.5t-42.5 17.5t-42.5 -17.5t-17.5 -42.5z" />
    <glyph glyph-name="ogonek" unicode="&#x2db;" horiz-adv-x="333" 
d="M112 8h25q-13 -23 -13 -50q0 -42 30.5 -68t73.5 -26q29 0 59 11l10 -15q-25 -14 -38.5 -20.5t-33.5 -11.5t-43 -5q-43 0 -76.5 23t-33.5 65q0 62 40 97z" />
    <glyph glyph-name="tilde" unicode="&#x2dc;" horiz-adv-x="333" 
d="M26 538h-15q-1 52 22 90t71 38q34 0 86 -34t71 -34q37 0 47 68h15q1 -52 -22 -90t-71 -38q-34 0 -86 34t-71 34q-37 0 -47 -68z" />
    <glyph glyph-name="hungarumlaut" unicode="&#x2dd;" horiz-adv-x="333" 
d="M78 715h92l-108 -169h-16zM231 715h92l-108 -169h-16z" />
    <glyph glyph-name="endash" unicode="&#x2013;" 
d="M509 221h-518v36h518v-36z" />
    <glyph glyph-name="emdash" unicode="&#x2014;" horiz-adv-x="1000" 
d="M1009 221h-1018v36h1018v-36z" />
    <glyph glyph-name="quoteleft" unicode="&#x2018;" horiz-adv-x="333" 
d="M219 677v-23q-27 -17 -40 -26.5t-27 -29.5t-14 -44q0 -30 18 -30q5 0 16.5 4t17.5 4q21 0 36 -15t15 -36q0 -27 -19 -42t-47 -15q-36 0 -59.5 30t-23.5 67q0 54 36.5 97t90.5 59z" />
    <glyph glyph-name="quoteright" unicode="&#x2019;" horiz-adv-x="333" 
d="M114 424v23q27 17 40 26.5t27 29.5t14 44q0 30 -18 30q-5 0 -16.5 -4t-17.5 -4q-21 0 -36 15t-15 36q0 27 19 42t47 15q36 0 59.5 -30t23.5 -67q0 -54 -36.5 -97t-90.5 -59z" />
    <glyph glyph-name="quotesinglbase" unicode="&#x201a;" horiz-adv-x="333" 
d="M114 -155v23q27 17 40 26.5t27 29.5t14 44q0 30 -18 30q-4 0 -16 -4t-18 -4q-21 0 -36 15t-15 36q0 27 19 42t47 15q36 0 59.5 -30t23.5 -67q0 -54 -36.5 -97t-90.5 -59z" />
    <glyph glyph-name="quotedblleft" unicode="&#x201c;" horiz-adv-x="444" 
d="M158 677v-23q-27 -17 -40 -26.5t-27 -29.5t-14 -44q0 -30 18 -30q5 0 16.5 4t17.5 4q21 0 36 -15t15 -36q0 -27 -19 -42t-47 -15q-36 0 -59.5 30t-23.5 67q0 54 36.5 97t90.5 59zM391 677v-23q-27 -17 -40 -26.5t-27 -29.5t-14 -44q0 -30 18 -30q5 0 16.5 4t17.5 4
q21 0 36 -15t15 -36q0 -27 -19 -42t-47 -15q-36 0 -59.5 30t-23.5 67q0 54 36.5 97t90.5 59z" />
    <glyph glyph-name="quotedblright" unicode="&#x201d;" horiz-adv-x="444" 
d="M286 424v23q27 17 40 26.5t27 29.5t14 44q0 30 -18 30q-5 0 -16.5 -4t-17.5 -4q-21 0 -36 15t-15 36q0 27 19 42t47 15q36 0 59.5 -30t23.5 -67q0 -54 -36.5 -97t-90.5 -59zM53 424v23q27 17 40 26.5t27 29.5t14 44q0 30 -18 30q-5 0 -16.5 -4t-17.5 -4q-21 0 -36 15
t-15 36q0 27 19 42t47 15q36 0 59.5 -30t23.5 -67q0 -54 -36.5 -97t-90.5 -59z" />
    <glyph glyph-name="quotedblbase" unicode="&#x201e;" horiz-adv-x="444" 
d="M286 -155v23q27 17 40 26.5t27 29.5t14 44q0 30 -18 30q-4 0 -16 -4t-18 -4q-21 0 -36 15t-15 36q0 27 19 42t47 15q36 0 59.5 -30t23.5 -67q0 -54 -36.5 -97t-90.5 -59zM53 -155v23q27 17 40 26.5t27 29.5t14 44q0 30 -18 30q-4 0 -16 -4t-18 -4q-21 0 -36 15t-15 36
q0 27 19 42t47 15q36 0 59.5 -30t23.5 -67q0 -54 -36.5 -97t-90.5 -59z" />
    <glyph glyph-name="dagger" unicode="&#x2020;" 
d="M261 -197h-22q0 170 -9 292.5t-39 235.5q46 35 50 115q-25 0 -71 -19t-68 -19q-21 0 -37 13t-16 34t16 34t37 13q22 0 68 -19t71 -19q0 29 -22.5 82.5t-22.5 82.5q0 26 14.5 45.5t39.5 19.5t39.5 -19.5t14.5 -45.5q0 -29 -22.5 -82.5t-22.5 -82.5q25 0 71 19t68 19
q21 0 37 -13t16 -34t-16 -34t-37 -13q-22 0 -68 19t-71 19q4 -80 50 -115q-30 -113 -39 -235.5t-9 -292.5z" />
    <glyph glyph-name="daggerdbl" unicode="&#x2021;" 
d="M260 496q25 0 65 17t61 17q20 0 33 -12t13 -31t-13 -31t-33 -12q-21 0 -61 17t-65 17q5 -54 47 -83q-47 -56 -47 -156t47 -156q-42 -29 -47 -83q25 0 65 17t61 17q20 0 33 -12t13 -31t-13 -31t-33 -12q-21 0 -61 17t-65 17q-1 -24 19.5 -74t20.5 -69q0 -23 -14.5 -39
t-35.5 -16t-35.5 16t-14.5 39q0 19 20.5 69t19.5 74q-25 0 -65 -17t-61 -17q-20 0 -33 12t-13 31t13 31t33 12q21 0 61 -17t65 -17q-5 54 -47 83q47 56 47 156t-47 156q42 29 47 83q-25 0 -65 -17t-61 -17q-20 0 -33 12t-13 31t13 31t33 12q21 0 61 -17t65 -17
q1 24 -19.5 74t-20.5 69q0 23 14.5 39t35.5 16t35.5 -16t14.5 -39q0 -19 -20.5 -69t-19.5 -74z" />
    <glyph glyph-name="bullet" unicode="&#x2022;" horiz-adv-x="350" 
d="M52 331q0 51 36 87t87 36t87 -36t36 -87t-36 -87t-87 -36t-87 36t-36 87z" />
    <glyph glyph-name="ellipsis" unicode="&#x2026;" horiz-adv-x="1000" 
d="M166 -14q-22 0 -38 16t-16 38t16 38t38 16t38 -16t16 -38t-16 -38t-38 -16zM500 -14q-22 0 -38 16t-16 38t16 38t38 16t38 -16t16 -38t-16 -38t-38 -16zM834 -14q-22 0 -38 16t-16 38t16 38t38 16t38 -16t16 -38t-16 -38t-38 -16z" />
    <glyph glyph-name="perthousand" unicode="&#x2030;" horiz-adv-x="1000" 
d="M172 676q66 0 103.5 -53.5t37.5 -125.5t-37.5 -125.5t-103.5 -53.5t-103.5 53.5t-37.5 125.5t37.5 125.5t103.5 53.5zM173 650q-64 0 -64 -154q0 -152 62 -152q64 0 64 154q0 152 -62 152zM502 344q66 0 103.5 -53.5t37.5 -125.5t-37.5 -125.5t-103.5 -53.5t-103.5 53.5
t-37.5 125.5t37.5 125.5t103.5 53.5zM503 318q-64 0 -64 -154q0 -152 62 -152q64 0 64 154q0 152 -62 152zM828 344q66 0 103.5 -53.5t37.5 -125.5t-37.5 -125.5t-103.5 -53.5t-103.5 53.5t-37.5 125.5t37.5 125.5t103.5 53.5zM829 318q-64 0 -64 -154q0 -152 62 -152
q64 0 64 154q0 152 -62 152zM598 677l-473 -692h-44l473 692h44z" />
    <glyph glyph-name="guilsinglleft" unicode="&#x2039;" horiz-adv-x="333" 
d="M276 -4h-30l-189 230l189 230h30l-121 -230z" />
    <glyph glyph-name="guilsinglright" unicode="&#x203a;" horiz-adv-x="333" 
d="M57 456h30l189 -230l-189 -230h-30l121 230z" />
    <glyph glyph-name="fraction" unicode="&#x2044;" horiz-adv-x="167" 
d="M333 676l-456 -702h-44l457 702h43z" />
    <glyph glyph-name="Euro" unicode="&#x20ac;" 
d="M414 360h-281l-1 -41h269l-11 -38h-257q1 -40 9.5 -80t25.5 -80.5t49 -66t74 -25.5q61 0 97.5 26t78.5 84l15 -10q-44 -71 -90.5 -106t-120.5 -35q-59 0 -103.5 25.5t-70.5 69.5t-40.5 93t-18.5 105h-49l11 38h36q0 27 1 41h-48l11 38h41q16 117 84 197.5t179 80.5
q83 0 166 -43v-146h-19q-14 157 -147 157q-43 0 -75.5 -24t-50.5 -64.5t-28 -78t-14 -79.5h289z" />
    <glyph glyph-name="trademark" unicode="&#x2122;" horiz-adv-x="980" 
d="M23 662h356l10 -98h-17q-3 20 -10.5 33t-15.5 20t-24 10.5t-27 4t-34 0.5h-19v-271q0 -24 1 -34t6 -21.5t17.5 -15.5t33.5 -4v-18h-197v18q40 0 49 15.5t9 59.5v271h-20q-23 0 -34 -0.5t-27 -4t-24 -10.5t-15.5 -20t-10.5 -33h-17zM563 662l133 -279l130 279h140v-18
q-40 0 -49 -15.5t-9 -59.5v-208q0 -24 1 -34t6 -21.5t17.5 -15.5t33.5 -4v-18h-197v18q40 0 49 15.5t9 59.5v229h-2l-149 -322h-16l-149 317h-2v-224q0 -24 1 -34t6 -21.5t17.5 -15.5t33.5 -4v-18h-146v18q40 0 49 15.5t9 59.5v208q0 24 -1 34t-6 21.5t-17.5 15.5t-33.5 4
v18h142z" />
    <glyph glyph-name="minus" unicode="&#x2212;" horiz-adv-x="564" 
d="M545 312h-525v40h525v-40z" />
    <glyph glyph-name="fi" unicode="&#xfb01;" horiz-adv-x="556" 
d="M194 447h242q4 0 12 2q2 0 6.5 0.5t6.5 0.5h13v-365q0 -41 15.5 -53.5t53.5 -13.5v-18h-219v18q38 1 53.5 13.5t15.5 53.5v244q0 61 -9.5 71.5t-64.5 10.5h-125v-280q0 -30 0.5 -43.5t4.5 -30.5t13 -23t24.5 -11t40.5 -5v-18h-249v18q25 0 41.5 5t25.5 11t13 23t4.5 30.5
t0.5 43.5v280h-87v36h87v27q0 101 58 160.5t147 59.5q66 0 106 -26.5t40 -64.5q0 -16 -11 -27t-27 -11q-19 0 -35 15t-26 33.5t-29 33.5t-43 15q-38 0 -68.5 -35.5t-30.5 -126.5v-53z" />
    <glyph glyph-name="fl" unicode="&#xfb02;" horiz-adv-x="556" 
d="M474 694v-609q0 -41 15.5 -53.5t53.5 -13.5v-18h-219v18q38 1 53.5 13.5t15.5 53.5v326h-199v-280q0 -30 0.5 -43.5t4.5 -30.5t13 -23t24.5 -11t40.5 -5v-18h-249v18q25 0 41.5 5t25.5 11t13 23t4.5 30.5t0.5 43.5v280h-87v36h87q0 72 16.5 123.5t44.5 77t56.5 36
t59.5 10.5q54 0 98 -36l64 36h22zM393 447v143h-2q-11 -15 -31 -15t-49 41.5t-55 41.5q-28 0 -45 -24.5t-17 -52.5v-134h199z" />
  </font>
</defs>
</svg>
